<svg width="12" height="12" viewBox="0 0 12 12" fill="none" xmlns="http://www.w3.org/2000/svg">
<g clip-path="url(#clip0_227_47478)">
<path d="M9.58997 2.72001C9.61218 2.67047 9.62366 2.6168 9.62366 2.56251C9.62366 2.50822 9.61218 2.45455 9.58997 2.40501C9.26029 1.73408 8.7492 1.16897 8.11465 0.773759C7.48011 0.378551 6.74752 0.169067 5.99997 0.169067C5.25242 0.169067 4.51983 0.378551 3.88529 0.773759C3.25075 1.16897 2.73965 1.73408 2.40997 2.40501C2.38776 2.45455 2.37628 2.50822 2.37628 2.56251C2.37628 2.6168 2.38776 2.67047 2.40997 2.72001C2.73965 3.39094 3.25075 3.95605 3.88529 4.35126C4.51983 4.74647 5.25242 4.95595 5.99997 4.95595C6.74752 4.95595 7.48011 4.74647 8.11465 4.35126C8.7492 3.95605 9.26029 3.39094 9.58997 2.72001ZM5.99997 3.56001C5.80219 3.56001 5.60885 3.50136 5.4444 3.39148C5.27995 3.2816 5.15178 3.12542 5.07609 2.94269C5.0004 2.75997 4.9806 2.5589 5.01919 2.36492C5.05777 2.17094 5.15301 1.99276 5.29287 1.8529C5.43272 1.71305 5.6109 1.61781 5.80488 1.57922C5.99886 1.54064 6.19993 1.56044 6.38266 1.63613C6.56538 1.71182 6.72156 1.83999 6.83144 2.00444C6.94132 2.16889 6.99997 2.36223 6.99997 2.56001C6.99997 2.82523 6.89461 3.07958 6.70708 3.26712C6.51954 3.45465 6.26519 3.56001 5.99997 3.56001Z" fill="black"/>
<path d="M11.835 3.04495C11.7112 3.00963 11.5808 3.00344 11.4542 3.02686C11.3275 3.05028 11.208 3.10268 11.105 3.17995C10.555 3.56495 10.27 4.56495 10.25 6.17995C10.2482 6.21142 10.2359 6.24136 10.215 6.26495L9.76 6.71995C9.7378 6.73478 9.7117 6.7427 9.685 6.7427C9.6583 6.7427 9.6322 6.73478 9.61 6.71995C9.58755 6.7049 9.56994 6.68367 9.55929 6.65882C9.54865 6.63398 9.54542 6.60659 9.55 6.57995L9.6 6.35495C9.66249 6.16844 9.65713 5.96586 9.58487 5.78291C9.5126 5.59997 9.37808 5.44841 9.205 5.35495C9.03671 5.29489 8.85237 5.29775 8.68603 5.363C8.51968 5.42825 8.38257 5.55149 8.3 5.70995C7.97168 6.35894 7.70388 7.0368 7.5 7.73495C7.49756 7.75989 7.49756 7.78501 7.5 7.80995V9.55995C7.5 9.62626 7.52634 9.68984 7.57322 9.73673C7.62011 9.78361 7.6837 9.80995 7.75 9.80995H9.75C9.8163 9.80995 9.87989 9.78361 9.92678 9.73673C9.97366 9.68984 10 9.62626 10 9.55995V9.45495C10.001 9.42183 10.0134 9.39007 10.035 9.36495L11.78 7.63495C11.9207 7.49443 11.9998 7.3038 12 7.10495V3.27995C12 3.22857 11.9841 3.17845 11.9546 3.1364C11.9251 3.09435 11.8833 3.06242 11.835 3.04495Z" fill="black"/>
<path d="M1.79 10.31C1.71865 10.3059 1.64848 10.3296 1.59435 10.3763C1.54021 10.4229 1.50637 10.4889 1.5 10.56V11.56C1.50253 11.5955 1.51205 11.6302 1.52802 11.662C1.54398 11.6938 1.56607 11.7221 1.59302 11.7453C1.61997 11.7686 1.65125 11.7862 1.68505 11.7973C1.71886 11.8085 1.75452 11.8128 1.79 11.81H4.71C4.74548 11.8128 4.78114 11.8085 4.81495 11.7973C4.84875 11.7862 4.88003 11.7686 4.90698 11.7453C4.93393 11.7221 4.95602 11.6938 4.97198 11.662C4.98795 11.6302 4.99747 11.5955 5 11.56V10.56C4.99363 10.4889 4.95979 10.4229 4.90565 10.3763C4.85152 10.3296 4.78135 10.3059 4.71 10.31H1.79Z" fill="black"/>
<path d="M7.29 10.31C7.21865 10.3059 7.14848 10.3296 7.09435 10.3763C7.04021 10.4229 7.00637 10.4889 7 10.56V11.56C7.00253 11.5955 7.01205 11.6302 7.02802 11.662C7.04398 11.6938 7.06607 11.7221 7.09302 11.7453C7.11997 11.7686 7.15125 11.7862 7.18505 11.7973C7.21886 11.8085 7.25452 11.8128 7.29 11.81H10.21C10.2455 11.8128 10.2811 11.8085 10.3149 11.7973C10.3488 11.7862 10.38 11.7686 10.407 11.7453C10.4339 11.7221 10.456 11.6938 10.472 11.662C10.4879 11.6302 10.4975 11.5955 10.5 11.56V10.56C10.4936 10.4889 10.4598 10.4229 10.4057 10.3763C10.3515 10.3296 10.2813 10.3059 10.21 10.31H7.29Z" fill="black"/>
<path d="M4.25 9.80995C4.3163 9.80995 4.37989 9.78361 4.42678 9.73673C4.47366 9.68984 4.5 9.62626 4.5 9.55995V7.80995C4.50244 7.78501 4.50244 7.75989 4.5 7.73495C4.2986 7.03185 4.03246 6.34893 3.705 5.69495C3.62324 5.53573 3.48619 5.41182 3.31957 5.34646C3.15295 5.2811 2.96821 5.27879 2.8 5.33995C2.62621 5.43266 2.49105 5.58415 2.41869 5.76735C2.34633 5.95054 2.34148 6.1535 2.405 6.33995L2.46 6.56495C2.46458 6.59159 2.46135 6.61898 2.45071 6.64382C2.44006 6.66867 2.42245 6.6899 2.4 6.70495C2.37806 6.72045 2.35186 6.72877 2.325 6.72877C2.29814 6.72877 2.27194 6.72045 2.25 6.70495L1.795 6.24995C1.7741 6.22636 1.76177 6.19642 1.76 6.16495C1.76 4.56995 1.455 3.56995 0.905 3.16495C0.799542 3.08866 0.677708 3.03807 0.549224 3.01724C0.42074 2.9964 0.289164 3.00589 0.165 3.04495C0.116682 3.06242 0.0749203 3.09435 0.0453967 3.1364C0.0158731 3.17845 2.18599e-05 3.22857 0 3.27995L0 7.08495C0.000236627 7.18937 0.0221321 7.29261 0.0643027 7.38814C0.106473 7.48367 0.168002 7.56941 0.245 7.63995C0.745 8.07995 1.655 9.03995 1.965 9.35995C1.97637 9.37095 1.98534 9.38418 1.99136 9.3988C1.99738 9.41343 2.00032 9.42914 2 9.44495V9.55995C2 9.62626 2.02634 9.68984 2.07322 9.73673C2.12011 9.78361 2.1837 9.80995 2.25 9.80995H4.25Z" fill="black"/>
</g>
<defs>
<clipPath id="clip0_227_47478">
<rect width="12" height="12" fill="white"/>
</clipPath>
</defs>
</svg>
