<?xml version="1.0" encoding="utf-8"?>
<!-- Generator: Adobe Illustrator 27.4.1, SVG Export Plug-In . SVG Version: 6.00 Build 0)  -->
<svg version="1.1" id="Layer_1" xmlns="http://www.w3.org/2000/svg" xmlns:xlink="http://www.w3.org/1999/xlink" x="0px" y="0px"
	 viewBox="0 0 368.4 500" style="enable-background:new 0 0 368.4 500;" xml:space="preserve">
<style type="text/css">
	.st0{fill:none;}
	.st1{fill:none;stroke:#0C9C8E;stroke-width:2.5;stroke-linecap:square;stroke-linejoin:round;stroke-miterlimit:10;}
</style>
<rect class="st0" width="368.4" height="500"/>
<g>
	<path class="st1" d="M257.8,176.7c-0.1,2.3-0.3,4.2-0.2,6.2c0,4.7-0.2,9.5,1.3,14.1c3.2,10.3,9.6,18.1,19.4,22.7
		c9.4,4.5,20.3,1.8,26.9-6.4c4.2-5.3,9.4-9.1,16.1-10.4c7.1-1.4,13.6-0.2,19,4.9c3.9,3.7,6.1,8.5,6.9,13.7c1.3,8-0.7,15.5-4.5,22.4
		c-8.7,15.7-21.3,26.8-38.8,32c-7.3,2.2-14.8,3.1-22.3,2.7c-13.1-0.7-24.5-5.8-34.3-14.5c-5.6-5-9.8-11.1-13.5-17.5
		c-3.8-6.6-7.3-13.3-11.7-19.5c-4.4-6.3-9.3-12.2-15.1-17.4c-5.5-4.9-11.8-6.9-19.1-5.7c-3.7,0.6-7.5,0.3-11.2,0.1
		c-2.3-0.1-4.5-0.3-6.7-0.5c-0.7-0.1-1.1,0.1-1.1,1c-0.1,2.6-0.2,5.2-0.3,7.9c-0.2,5.6-2.5,10.3-6.4,14.2c-2.6,2.6-5.4,5-8.1,7.5
		c-4,3.7-8.8,5.5-14.1,6.2c-3.7,0.5-7.5,0.8-11.2,1.2c-0.6,0.1-1.3,0.2-1.9,0.4c-2.1,0.6-3,1.8-2.8,4c0.2,2.9,0.9,5.8,2.5,8.3
		c2.8,4.5,6.9,6,12.1,5.5c9.2-0.9,17.9-3.7,26.5-6.7c5-1.7,10.1-3.2,15.4-3.7c9.9-0.9,19,1.1,26.4,8.1c4.3,4.1,6.9,9.2,8.6,14.8
		c1.7,5.8,2.1,11.6,1.7,17.6c-0.2,3-0.4,5.9-1.4,8.7c-2.4,6.5-7.3,10.3-13.7,12.5c-3.2,1-6.4,1.5-9.7,1.7c-4,0.2-8,0.2-11.9,1.4
		c-4.3,1.3-7.7,3.8-10.4,7.3c-1.3,1.7-1.2,3.5-0.4,5.3c1,2.2,2.2,4.4,3.2,6.7c1.7,3.7,3.3,7.5,4.2,11.6c1.2,5.8,0.5,11.5-2.4,16.7
		c-6.6,12-16.1,21-29,26c-5.2,2-10.7,2.4-16.2,1.9c-4.5-0.3-9-1-13.3-2.2c-7-2-12.5-6.2-17.2-11.8c-2.9-3.5-5.6-7.1-7.1-11.4
		c-1.9-5.2-2-10.6-1.2-16.1c0.6-4.2,2-8.2,3.8-12.1c3-6.5,5.8-13,8.7-19.6c0.2-0.5,0.4-1.1,0.6-1.6c1-3.4-0.9-6-4.4-6.1
		c-3.3,0-6.5,0.8-9.6,1.7c-5,1.4-10.1,3-15.2,4.2c-9.6,2.3-19.3,2.3-28.8-0.9c-7.6-2.5-14-6.7-18.8-13.2c-3.9-5.3-5.7-11.2-6.2-17.7
		c-0.6-9.2,1.8-17.6,7.2-25.1c1.9-2.6,3.6-5.2,5.7-7.6c2.7-3.1,6.4-4.9,10-6.7c8.2-4.1,16.4-8.1,24.2-12.8c1.6-1,3.1-2.1,4.5-3.4
		c3-2.7,3.9-6.4,4.8-10.1c0.7-2.7,0.1-5.2-0.3-7.8c-1-6.6,0.4-12.8,4-18.4c7.9-12.2,18.2-21.7,31.6-27.5c7.6-3.3,15.3-3.4,23.2-0.8
		c4.3,1.4,8.6,2.8,13,4.2c1.2,0.4,2,0.1,2.4-1.1c1.7-5.1,5.3-9.1,8.2-13.5c0.4-0.6,0.9-1,1.3-1.5c0.4-0.6,0.3-1.2-0.3-1.5
		c-2.7-1.5-5.2-3.2-8-4.5c-4.4-1.9-9-3.6-13.5-5.3c-8.4-3-16.7-6.4-24.9-10.1c-10.2-4.6-18.2-11.6-24.5-20.8c-4.1-6-7.5-12.3-9-19.5
		c-1-4.8-1-9.6-0.6-14.5c0.3-2.9,0.7-5.8,1.4-8.6c1.6-6.2,5.6-10.8,10.6-14.5c3.7-2.7,7.7-4.5,12.3-4.8c3.9-0.2,7.7,0.6,11.4,1.8
		c6.1,1.9,11,5.5,14,11.3c1.8,3.5,2.6,7.2,2.9,11.1c0.5,6,3.3,10.9,7.7,14.9c6.1,5.4,13.3,8.4,21.2,9.9c1.8,0.3,3.7,0.9,5.5,1.3
		c2.1,0.5,3.1,0,3.9-2c2.2-5.9,6-10.2,12-12.3c2.1-0.7,4.4-1.4,6.6-1.6c3.7-0.3,7.5-0.4,11.2-0.3c4.8,0.2,9.1,2,13.1,4.7
		c2,1.4,4,2.9,5.8,4.5c1.9,1.7,3.8,1.9,6,0.8c6.7-3.2,11.7-8.1,15.1-14.6c5.2-9.9,11.5-19,19.4-27c9.3-9.4,19.7-17,32.6-20.8
		c6-1.8,12-3,18.2-3.2c6.5-0.2,12.2,1.8,17.3,5.6c8,6,13,13.9,14.7,23.7c2,11.6-4.2,20.7-13,25.3c-4.7,2.4-9.7,3.7-15,3
		c-3.6-0.5-7.2-1.1-10.7-1.9c-8.1-1.7-14.7,0.8-20,6.9c-3.1,3.5-5.2,7.6-6.4,12c-1.4,4.9-2.5,9.9-3.7,14.8c-0.2,0.8-0.1,1.4,0.9,1.6
		c6.8,1.4,11.5,5.9,15.8,10.9c4.1,4.8,6.6,10.4,7.5,16.6c1.2,7.8-0.4,15.1-4.5,21.8c-2.1,3.5-4.9,6.1-8.2,8.5
		c-6.1,4.3-12.9,5.2-20.1,4.9c-1.6-0.1-3.1-0.7-4.7-1.2C259.9,177.6,259,177.2,257.8,176.7z M103.6,306.5c0-0.1,0.1-0.2,0.1-0.4
		c0-0.3,0.1-0.6,0.1-0.9c0.1-3.1-0.4-6-1.9-8.7c-1.7-3.1-3.8-6-5.6-9c-0.3-0.5-0.6-1-0.8-1.6c-0.1-0.2,0.2-0.7,0.5-0.8
		c0.2-0.1,0.7,0,0.8,0.2c2.9,3.3,5.5,6.7,7,11c2.4,7,3.5,14,2.1,21.4c-0.9,4.9-2.7,9.4-5.2,13.6c-3,5-5.4,10.2-6.8,15.9
		c-1.1,4.4-1.7,8.8-0.5,13.2c2.2,8.3,7.1,14.9,14.2,19.7c7.8,5.3,16.5,7.2,25.8,6.7c6.3-0.3,12.4-1.9,17.9-5
		c9.2-5,15.8-12.6,20.8-21.6c2.9-5.2,3.6-10.8,2.3-16.6c-0.9-3.8-2.5-7.3-4.5-10.7c-4.5-7.3-5.7-15.2-3.7-23.5
		c0.4-1.8,1.3-3.4,2.2-5.1c0.2-0.4,1.1-0.8,1.7-0.7c0.8,0.1,0.7,0.9,0.6,1.5c-0.1,0.7-0.3,1.4-0.5,2.2c-0.4,1.3-0.9,2.6-1.2,4
		c-0.3,1.5-0.1,2.9,0.8,4.2c0.3-0.2,0.6-0.4,0.8-0.6c1.3-0.8,2.5-1.7,3.8-2.3c4.2-2.1,8.7-2.5,13.2-2.8c3.7-0.2,7.4-0.3,11-1.2
		c5.6-1.4,10.3-4.1,13.2-9.2c2.6-4.6,3.6-9.7,3.5-14.9c-0.1-6.2-1.8-12-4.4-17.6c-2.7-5.7-6.8-9.6-13.1-11c-3.5-0.7-7-1.5-10.6-2.1
		c-5.5-1-11-0.7-16.4,1c-4.6,1.5-9.2,3.2-13.8,4.8c-6,2.1-12,4.1-18.4,4.3c-6.2,0.2-11.3-2-14.4-7.4c-2.7-4.7-3.5-10-2.8-15.5
		c0.8-5.9,3.4-10.9,7.6-15.1c0.9-0.9,2.1-1.6,3.3-2.3c0.6-0.4,1-0.1,1.2,0.7c0.2,0.8-0.3,1.3-0.8,1.7c-1.2,1.1-2.7,2.1-3.6,3.5
		c-1.5,2.2-2.7,4.6-3.9,7c-0.7,1.4-0.2,1.9,1.3,1.8c3.1-0.3,6.2-0.6,9.3-1c8.8-0.9,16.5-4.3,22.6-10.9c5-5.4,8.1-11.6,8.1-19.1
		c0-3.4-1.3-5.7-4.4-7.2c-4.6-2.2-7.9-5.8-9.9-10.5c-2.1-5-2.7-10.3-2.8-15.7c0-1.6-0.4-2.3-1.9-2.8c-1-0.3-2-0.6-3-1
		c-4.3-1.5-8.7-3.2-13-4.6c-4.6-1.6-9.2-1.6-13.8,0c-5.7,2-11,4.6-15.9,8c-8.2,5.7-14.8,12.8-19.4,21.7c-2.1,4.2-3.1,8.7-2.6,13.4
		c0.6,5.5,1.8,10.8,3.6,16c1,3,1.5,6.1,1,9.4c-0.4,2.7-1.3,5.2-3.2,7.1c-0.3,0.3-1.1,0.5-1.4,0.3c-0.3-0.2-0.5-0.9-0.4-1.4
		c0.1-0.6,0.5-1.2,0.8-1.8c1.5-2.8,2.3-5.7,1.7-8.8c-0.4-2.1-1.2-4-2.8-5.8c-0.1,0.5-0.2,0.9-0.3,1.2c-0.6,1.4-1,3-2,4.1
		c-1.1,1.4-2.5,2.6-4,3.4c-7.9,4.4-15.8,8.7-24.2,12.2c-6.1,2.5-11.5,6.3-15.7,11.4c-6.6,8-9.5,17.4-9.3,27.7
		c0.2,6.5,2.4,12.3,7,16.9c7.5,7.5,16.8,11.1,27.2,12c6.5,0.5,12.9-0.3,19.2-2c4.5-1.3,9-2.8,13.4-4.3c2.7-0.9,5.5-1.7,8.4-1.1
		C100.4,305.3,101.9,305.9,103.6,306.5z M203.3,201.2c0.1,0.2,0.2,0.3,0.2,0.4c0.2,0.2,0.4,0.5,0.6,0.7c6.5,7.1,13.5,13.7,18.7,21.9
		c3.3,5.2,7.2,9.9,10.2,15.3c1.8,3.3,3.6,6.7,5.7,9.9c10.5,16,25.6,24.1,44.5,25.4c8.3,0.6,16.3-1.2,23.9-4.4
		c15.3-6.3,26.8-16.8,33.8-31.8c3.1-6.8,4.4-13.8,2.3-21.1c-1.5-5.6-4.8-9.6-10.7-10.9c-2.9-0.7-5.9-0.8-8.9-0.6
		c-5,0.4-9.2,2.3-12.4,6.1c-2.3,2.9-4.6,5.8-6.8,8.8c-3.6,5-7.2,9.9-12.5,13.1c-0.7,0.4-1.5,0.7-2.3,0.8c-0.3,0.1-0.9-0.4-1-0.7
		c-0.1-0.3,0.1-0.9,0.4-1.1c0.8-0.6,1.6-1.2,2.5-1.7c2.2-1,3.6-2.8,4.9-4.7c0.3-0.4,0.3-1.1,0.2-1.6c-0.1-0.2-0.8-0.4-1.2-0.4
		c-2.2,0-4.3,0.1-6.5,0.1c-3.7,0-7.3-0.3-10.7-1.7c-7.2-3-12.9-8-17.5-14.2c-3.4-4.6-5.7-9.6-5.9-15.4c0-1.4-0.3-2.8-0.3-4.1
		c-0.1-4.5-0.1-9-0.1-13.4c0-0.7-0.2-1.1-0.8-1.5c-4.3-2.9-8.2-6.2-10.5-11c-0.5-0.9-0.9-1.9-1.4-2.8c-0.1-0.3-0.3-0.5-0.6-0.9
		c-0.3,0.5-0.4,0.9-0.6,1.2c-1.3,2.7-2.5,5.6-4,8.2c-3.3,5.9-6.7,11.8-11,17.1c-5.2,6.5-11.4,11.5-19.3,14.2
		C205.2,200.6,204.3,200.9,203.3,201.2z M241.3,139.5c-0.1-1.4-0.1-2.8-0.3-4.2c-0.8-7.3-3-14.2-6.5-20.7c-3.8-6.9-8.4-13.2-13.7-19
		c-7-7.6-15.4-11.8-25.9-11.1c-3.9,0.3-7.7,1-11.2,2.7c-7.6,3.6-12.2,12.5-10.6,20.6c0.7,3.5,2.6,6.4,4.9,9.2c1.6,2,3.3,4.1,4.5,6.3
		c3,5.7,3.2,11.4,0,17.1c-1.1,2-1.1,1.9,1.1,2.6c1.7,0.5,3.4,1.1,5.1,1.7c0.4,0.1,0.5,0.8,0.8,1.2c-0.4,0.2-0.9,0.6-1.3,0.6
		c-0.7,0-1.3-0.2-2-0.4c-2.7-1-5.5-1-8.2-0.3c-10.1,2.4-17.8,8-22.6,17.3c-3.6,7-3.5,14.5-1.5,22c1.4,5.4,4.7,9.3,9.7,11.7
		c5.2,2.5,10.8,3.9,16.5,4.1c5.1,0.2,10.1-0.5,15-1.4c11.2-2.1,20.7-6.8,27.5-16.4c5.1-7.1,10.1-14.2,13.6-22.3
		C239.3,154,241.3,147,241.3,139.5z M243.2,128.8c0.3-0.3,0.4-0.4,0.5-0.6c3-4.6,7.3-7.8,12.2-10.1c1.8-0.9,3.7-1.5,5.7-1.9
		c2.4-0.5,4.8-0.6,7.2-0.8c0.7-0.1,1.1-0.2,1.3-1c0.6-2.1,1.2-4.1,1.7-6.2c1.1-4,1.9-8.1,3.6-12c1.9-4,3.7-8.1,6.6-11.5
		c4.3-5.1,9.8-7.7,16.5-8c3.7-0.2,7.3,0.5,10.8,1.5c3.9,1.2,7.9,1.6,11.9,0.9c6.6-1.2,12.2-4.3,16-9.8c4.9-7.2,4.9-14.9,0.9-22.5
		c-3.4-6.4-8.6-11.2-14.6-15.2c-2.7-1.8-5.8-2.4-9-2.1c-4.7,0.6-9.5,1.1-14.2,1.8c-4.8,0.8-9.6,1.8-14.1,3.9
		c-8.4,3.9-15.6,9.5-22.3,15.7c-8,7.3-14.3,16.1-19.6,25.6c-1.8,3.3-4,6.4-6.2,9.4c-2.7,3.7-6.3,6.4-10.5,8.4
		c-2.3,1.1-2.5,2-1.1,4.1c0.1,0.2,0.2,0.3,0.3,0.5c2.4,3.4,4.7,6.9,7.2,10.3c3.3,4.5,5.8,9.5,7.4,14.8
		C242.1,125.5,242.7,127.1,243.2,128.8z M107,51c-1.1,0.1-2.4,0.1-3.6,0.5c-10.2,2.7-17.2,8.9-20.1,19.1c-1,3.4-1.5,6.9-0.9,10.5
		c0.4,2.4,0.9,4.8,1.4,7.1c1.1,5.5,2.5,10.9,5.2,16c4.3,8,10.7,14,18.6,18.3c9.8,5.4,20.3,9.6,30.6,13.8c7.1,2.9,14.4,5.4,21,9.3
		c3.6,2.1,7.3,2,11-0.1c1.9-1.1,3.9-2.3,5.7-3.6c3.8-2.8,5.8-6.6,5.9-11.3c0.1-4.1-1.6-7.6-4.6-10.4c-3.1-2.9-5.6-6.3-6.7-10.4
		c-0.6-2.2-0.8-4.6-1.1-6.9c-0.2-1.5-1.1-2.3-2.6-2.4c-0.4,0-0.8,0-1.2-0.1c-2.8-0.6-5.5-1.3-8.3-1.9c-5.6-1.2-10.8-3.1-15.4-6.7
		c-2.5-1.9-5.1-3.7-6.8-6.5c-2.7-4.5-4.5-9.3-4.9-14.5c-0.3-4.2-1.6-8.1-4.5-11.2C120.7,54.1,114.5,51.3,107,51z M296.2,148.3
		c0-5.3-1.2-10.2-3.9-14.8c-3.2-5.3-7.2-9.8-13-12.4c-3-1.3-6.2-1.9-9.5-2.2c-3.9-0.3-7.8,0-11.5,1.7c-5.3,2.5-9.4,6.4-12.9,10.9
		c-0.8,1-1.4,2.1-1.2,3.4c0.8,6.7,0.5,13.3-1.3,19.8c-0.1,0.4-0.1,0.9,0,1.3c1.3,3.5,2.9,6.9,5.1,9.9c4.7,6.4,16.2,10.9,24.6,9.5
		C284.1,173.6,295.8,165.1,296.2,148.3z"/>
	<path class="st1" d="M249.9,474.8c-11.7,0-23.1-1.5-34.2-5.3c-5.8-2-11.5-4.3-16.5-8c-4.5-3.3-8.8-6.9-11.2-12.1
		c-2.8-5.9-5.5-11.9-6.7-18.4c-1.7-9.7,0.6-18.5,7.4-25.8c4.2-4.5,9.5-7.6,14.9-10.5c4.9-2.6,10.2-3.6,15.7-3.6
		c5.9-0.1,11.8,0.3,17.7,1.2c1.5,0.2,3.1,0.3,4.6,0.2c3.9-0.2,6.3-2.2,7.3-6c1.4-5.2,0.9-10.2-0.7-15.3c-2-6.2-4.6-12-7.4-17.8
		c-1.9-4.1-2.8-8.3-1.9-12.8c0.6-2.7,1.6-5.2,3-7.6c3.6-5.8,7.9-10.9,13.5-14.9c6.7-4.7,14.1-7.2,22.3-7.4c6-0.2,11.8,0.6,17.4,2.8
		c6.6,2.7,12.1,6.8,16.6,12.3c5.9,7.1,10.5,15.1,14.3,23.5c3.9,8.8,6.6,18,8.4,27.4c1.5,8.2,2.7,16.4,2.3,24.7
		c-0.3,4.9-0.7,9.9-1.6,14.7c-0.8,4.7-1.9,9.5-3.5,14c-2.4,7-6.5,13.2-11.3,18.8c-4.9,5.7-10.8,10.3-17.2,14.1
		c-5.7,3.4-11.9,5.8-18.4,7.5c-4.8,1.3-9.6,2.2-14.6,2.8C263.5,474.1,256.7,474.8,249.9,474.8z M252.2,390.4c0.4-0.1,0.5,0,0.7-0.1
		c2.6-1.1,5.3-2.1,7.7-3.5c5.2-3,8.7-7.4,10.9-13c0.2-0.5,0.7-1.2,1.1-1.2c0.8,0,0.9,0.8,1,1.5c0,0.2,0,0.3,0,0.5
		c0,2.6-0.7,5.1-2.2,7.3c-4.1,6-9.5,10.2-16.4,12.6c-5.1,1.7-10.4,2.2-15.7,1.8c-5-0.4-10-0.8-15-1.2c-3.6-0.2-7.1-0.4-10.7,0.2
		c-9.4,1.8-17.2,6.5-23.3,13.8c-3.1,3.7-5.4,7.9-6.3,12.7c-1.1,6.1-0.1,12,2.1,17.7c0.9,2.4,1.9,4.7,2.9,7c1.3,2.9,3,5.6,5.4,7.8
		c7.4,6.6,15.9,11.1,25.4,13.9c7.6,2.3,15.3,3.4,23.2,3.9c8.9,0.5,17.8,0,26.6-1.4c4.7-0.8,9.3-2,13.9-3.3c8-2.2,15.4-5.6,22.1-10.5
		c7.7-5.5,14.4-12.1,19.2-20.4c1.4-2.4,2.9-4.9,3.8-7.6c1.4-4.1,2.5-8.3,3.5-12.5c1.3-5.7,1.9-11.6,1.9-17.4c0-4.2-0.2-8.4-0.6-12.6
		c-0.5-6.6-1.9-13-3.8-19.3c-2.8-9.6-6.7-18.6-11.4-27.4c-4.3-8-10-14.8-17.8-19.5c-5.3-3.2-11.1-5.3-17.2-5.9
		c-5.1-0.5-10,0.2-14.8,2.1c-8.1,3.1-15.1,7.5-20.4,14.5c-5.6,7.5-6.9,15.6-3.6,24.3c2.2,5.9,4.6,11.7,6.7,17.5
		c0.9,2.3,1.8,4.8,1.9,7.2c0.2,3-0.4,6.1-0.7,9.1C252.4,389.5,252.3,389.8,252.2,390.4z"/>
	<path class="st1" d="M335.8,124.8c-5.6,0-10.5-4.4-11.1-10c-0.3-2.5-0.4-4.9,0.2-7.3c1.3-4.8,5.6-8.2,10.5-8.1
		c3.6,0.1,6.4,2,8.4,4.9c2.5,3.8,3.2,8,2.4,12.4C345.4,121.2,340.6,124.8,335.8,124.8z M327.6,113.6c0.1,0,0.2,0,0.2,0
		c0,0.5,0,1.1,0,1.6c0.1,1.6,0.6,3,1.8,4c2.8,2.4,8.3,2.2,10.9-0.4c3.3-3.4,3.5-7.4,2-11.6c-0.9-2.6-2.7-4.1-5.4-4.7
		c-4.2-0.9-7.5,0.9-8.5,5.1C328.1,109.6,327.9,111.6,327.6,113.6z"/>
</g>
</svg>
