<svg xmlns="http://www.w3.org/2000/svg" fill="currentColor" viewBox="0 0 16 16">
  <g clip-path="url(#a)">
    <path fill-rule="evenodd" d="M0 1.5A1.5 1.5 0 0 1 1.5 0h13A1.5 1.5 0 0 1 16 1.5v13a1.5 1.5 0 0 1-1.5 1.5h-13A1.5 1.5 0 0 1 0 14.5v-13ZM1.5 1a.5.5 0 0 0-.5.5v13a.5.5 0 0 0 .5.5h13a.5.5 0 0 0 .5-.5v-13a.5.5 0 0 0-.5-.5h-13Z" clip-rule="evenodd"/>
    <path d="M7.125 10.075c0-.11.09-.2.2-.2h1.35c.11 0 .2.09.2.2v1.35a.2.2 0 0 1-.2.2h-1.35a.2.2 0 0 1-.2-.2v-1.35ZM9 8.2c0-.11.09-.2.2-.2h1.35c.11 0 .2.09.2.2v1.35a.2.2 0 0 1-.2.2H9.2a.2.2 0 0 1-.2-.2V8.2Zm2-2c0-.11.09-.2.2-.2h1.35c.11 0 .2.09.2.2v1.35a.2.2 0 0 1-.2.2H11.2a.2.2 0 0 1-.2-.2V6.2ZM4.8 6c.11 0 .2.09.2.2v1.35a.2.2 0 0 1-.2.2H3.45a.2.2 0 0 1-.2-.2V6.2c0-.11.09-.2.2-.2H4.8Zm2 2c.11 0 .2.09.2.2v1.35a.2.2 0 0 1-.2.2H5.45a.2.2 0 0 1-.2-.2V8.2c0-.11.09-.2.2-.2H6.8Z"/>
  </g>
  <defs>
    <clipPath id="a">
      <path d="M0 0h16v16H0z"/>
    </clipPath>
  </defs>
</svg>
