<svg xmlns="http://www.w3.org/2000/svg" fill="currentColor" viewBox="0 0 16 16">
  <g class="Vector">
    <path fill-rule="evenodd" d="M0 1.5A1.5 1.5 0 0 1 1.5 0h13A1.5 1.5 0 0 1 16 1.5v13a1.5 1.5 0 0 1-1.5 1.5h-13A1.5 1.5 0 0 1 0 14.5v-13ZM1.5 1a.5.5 0 0 0-.5.5v13a.5.5 0 0 0 .5.5h13a.5.5 0 0 0 .5-.5v-13a.5.5 0 0 0-.5-.5h-13Z" clip-rule="evenodd"/>
    <path d="M9.3 7.125c.11 0 .2.09.2.2v1.35a.2.2 0 0 1-.2.2H7.95a.2.2 0 0 1-.2-.2v-1.35c0-.11.09-.2.2-.2H9.3Zm-5.125 0c.11 0 .2.09.2.2v1.35a.2.2 0 0 1-.2.2h-1.35a.2.2 0 0 1-.2-.2v-1.35c0-.11.09-.2.2-.2h1.35Zm7 1.875c.11 0 .2.09.2.2v1.35a.2.2 0 0 1-.2.2h-1.35a.2.2 0 0 1-.2-.2V9.2c0-.11.09-.2.2-.2h1.35ZM6.05 9c.11 0 .2.09.2.2v1.35a.2.2 0 0 1-.2.2H4.7a.2.2 0 0 1-.2-.2V9.2c0-.11.09-.2.2-.2h1.35Zm7.125 2c.11 0 .2.09.2.2v1.35a.2.2 0 0 1-.2.2h-1.35a.2.2 0 0 1-.2-.2V11.2c0-.11.09-.2.2-.2h1.35ZM8.05 11c.11 0 .2.09.2.2v1.35a.2.2 0 0 1-.2.2H6.7a.2.2 0 0 1-.2-.2V11.2c0-.11.09-.2.2-.2h1.35Zm5.325-6.2a.2.2 0 0 1-.2.2h-1.35a.2.2 0 0 1-.2-.2V3.45c0-.11.09-.2.2-.2h1.35c.11 0 .2.09.2.2V4.8Zm-5.125 0a.2.2 0 0 1-.2.2H6.7a.2.2 0 0 1-.2-.2V3.45c0-.11.09-.2.2-.2h1.35c.11 0 .2.09.2.2V4.8Zm3.125 2a.2.2 0 0 1-.2.2h-1.35a.2.2 0 0 1-.2-.2V5.45c0-.11.09-.2.2-.2h1.35c.11 0 .2.09.2.2V6.8Zm-5.125 0a.2.2 0 0 1-.2.2H4.7a.2.2 0 0 1-.2-.2V5.45c0-.11.09-.2.2-.2h1.35c.11 0 .2.09.2.2V6.8Z"/>
  </g>
</svg>