<svg xmlns="http://www.w3.org/2000/svg" fill="currentColor" viewBox="0 0 14 14">
  <g class="artifactdatabase" clip-path="url(#a)">
    <g class="Group">
      <path d="M13.1 3.5c-.1-.2-.3-.3-.5-.4L7.7.8C7.5.7 7.2.6 7 .6c-.2 0-.5 0-.7.1L1.5 3c-.5.2-.9.7-.9 1.2v5.4c0 .5.3.9.8 1.1l4.9 2.4c.2.1.3.1.5.1H7c.3 0 .5 0 .8-.2l4.8-2.4c.5-.2.8-.6.8-1.2V4.3c0-.3-.1-.6-.3-.8Zm-6.5 9-4.8-2.4c-.1 0-.2-.1-.3-.3l1.3-.6c.2-.1.2-.4.1-.5 0-.2-.3-.3-.4-.2L1.4 9V4.3l4.9 2.4c.1 0 .2.1.3.1v5.7Zm0-6.4L1.8 3.7l4.8-2.3v.9c0 .2.2.4.4.4s.4-.2.4-.4v-.9h.1l4.8 2.3-4.9 2.4c-.2.1-.6.1-.8 0Zm6 2.9-1.1-.5c-.2-.1-.4 0-.5.2-.1.2 0 .4.2.5l1.3.6c0 .1-.2.3-.3.3l-4.8 2.4h-.1V6.9c.1 0 .3-.1.4-.1l4.8-2.4h.1V9Z" class="Vector"/>
    </g>
    <g class="Group">
      <path d="M6.9 5.5c-.2 0-.4-.2-.4-.4V3.8c0-.2.2-.4.4-.4s.4.2.4.4v1.3c0 .3-.1.4-.4.4Z" class="Vector"/>
    </g>
    <g class="Group">
      <path d="M4 8.6c-.1 0-.3-.1-.3-.2-.1-.2 0-.4.2-.5l1.5-.7c.2-.1.4 0 .5.2.1.2 0 .4-.2.5l-1.6.6-.1.1Z" class="Vector"/>
    </g>
    <g class="Group">
      <path d="M10 8.6h-.2l-1.4-.8c-.2-.1-.3-.3-.2-.5.1-.2.3-.3.5-.2l1.5.7c.2.1.3.3.2.5-.1.2-.2.3-.4.3Z" class="Vector"/>
    </g>
  </g>
  <defs>
    <clipPath id="a" class="a">
      <path d="M0 0h14v14H0z"/>
    </clipPath>
  </defs>
</svg>