<svg width="18" height="18" viewBox="0 0 18 18" fill="none" xmlns="http://www.w3.org/2000/svg">
<path d="M7.37098 8.1859C7.2547 8.28602 7.16129 8.41056 7.09724 8.55088C7.03318 8.69121 7 8.84397 7 8.99858C7 9.15318 7.03318 9.30594 7.09724 9.44627C7.16129 9.5866 7.2547 9.71113 7.37098 9.81125L15.2659 16.7464C15.4192 16.8783 15.6066 16.963 15.8059 16.9903C16.0052 17.0177 16.2081 16.9867 16.3905 16.9009C16.573 16.8151 16.7273 16.6781 16.8353 16.5062C16.9434 16.3343 17.0005 16.1346 17 15.9309L17 2.06629C17 1.86275 16.9424 1.66348 16.8342 1.492C16.726 1.32052 16.5716 1.18399 16.3893 1.09854C16.2069 1.01309 16.0043 0.982287 15.8052 1.00976C15.6062 1.03724 15.419 1.12185 15.2659 1.25361L7.37098 8.1859Z" stroke="black" stroke-width="1.5" stroke-linecap="round" stroke-linejoin="round"/>
<path d="M11 2.59863L11 2.06615C11 1.86264 10.9424 1.6634 10.8342 1.49194C10.726 1.32048 10.5716 1.18397 10.3893 1.09853C10.2069 1.01309 10.0043 0.98229 9.80523 1.00976C9.60618 1.03724 9.41904 1.12184 9.26592 1.25358L1.37098 8.18499C1.2547 8.2851 1.16129 8.40962 1.09724 8.54993C1.03318 8.69023 1 8.84297 1 8.99756C1 9.15215 1.03318 9.30489 1.09724 9.4452C1.16129 9.58551 1.2547 9.71003 1.37098 9.81014L9.26521 16.7458C9.4185 16.8779 9.60597 16.9628 9.80539 16.9903C10.0048 17.0178 10.2078 16.9868 10.3904 16.9009C10.573 16.8151 10.7274 16.6781 10.8355 16.5061C10.9435 16.3341 11.0006 16.1343 11 15.9304L11 15.3951" stroke="black" stroke-width="1.5" stroke-linecap="round" stroke-linejoin="round"/>
</svg>
