<svg xmlns="http://www.w3.org/2000/svg" width="16" height="16" fill="currentColor" viewBox="0 0 16 16">
  <g clip-path="url(#a)">
    <path fill="#evenodd" fill-rule="evenodd" d="M0 1.833C0 .821.82 0 1.833 0h12.334C15.179 0 16 .82 16 1.833v12.334C16 15.179 15.18 16 14.167 16H1.833A1.833 1.833 0 0 1 0 14.167V1.833ZM1.833 1A.833.833 0 0 0 1 1.833v12.334c0 .46.373.833.833.833h12.334c.46 0 .833-.373.833-.833V1.833A.833.833 0 0 0 14.167 1H1.833Z" clip-rule="evenodd"/>
    <path fill="#evenodd" d="M8 7.125a.875.875 0 1 1 0 1.75.875.875 0 0 1 0-1.75ZM9.875 9a.875.875 0 1 1 0 1.75.875.875 0 0 1 0-1.75Zm-5.75-5.75a.875.875 0 1 1 0 1.75.875.875 0 0 1 0-1.75Zm7.75 7.75a.875.875 0 1 1 0 1.75.875.875 0 0 1 0-1.75Zm-5.75-5.75a.875.875 0 1 1 0 1.75.875.875 0 0 1 0-1.75ZM7 9.875a.875.875 0 1 1-1.75 0 .875.875 0 0 1 1.75 0Zm5.75-5.75a.875.875 0 1 1-1.75 0 .875.875 0 0 1 1.75 0ZM5 11.875a.875.875 0 1 1-1.75 0 .875.875 0 0 1 1.75 0Zm5.75-5.75a.875.875 0 1 1-1.75 0 .875.875 0 0 1 1.75 0Z"/>
  </g>
  <defs>
    <clipPath id="a">
      <path fill="#evenodd" d="M0 0h16v16H0z"/>
    </clipPath>
  </defs>
</svg>