<svg xmlns="http://www.w3.org/2000/svg" width="150" height="150" fill="currentColor" viewBox="0 0 381 396">
  <path fill="#000" fill-rule="evenodd" d="M175.606 2.593a2.785 2.785 0 0 0-1.423-.001c-1.333.349-2.928.758-4.188 1.079l-1.567.398-.579.147-.027.006-.005.002-.01.002-7.949 2.12 21.855 5.828 14.911-3.976-21.018-5.605Zm25.869 6.898-14.91 3.976 11.73 3.129 14.911-3.976-11.731-3.129Zm16.582 4.422-14.91 3.976 11.73 3.128 14.911-3.976-11.731-3.128Zm15.332 4.756-17.262 4.602V97.02l17.262-4.603V18.668Zm-19.762 78.35V23.271l-14.082-3.755v73.748l14.082 3.755Zm-16.582-4.422v-35.58l-14.082-3.755v35.58l14.082 3.755Zm-16.582-4.421V14.427l-25.168-6.712a.75.75 0 0 0-.943.725v72.772l26.111 6.963Zm2.5-73.082v6.955l14.082 3.755V18.85l-14.082-3.756Zm14.082 13.298-14.082-3.756v6.955l14.082 3.755v-6.954Zm0 9.541-14.082-3.755v6.955l14.082 3.755v-6.955Zm0 9.542-14.082-3.755v6.955l14.082 3.755v-6.955ZM154.071 5.357a3.25 3.25 0 0 0-2.219 3.084v73.732c0 .566.381 1.062.928 1.208l61.775 16.473c.211.056.433.056.644 0l19.762-5.27a1.25 1.25 0 0 0 .928-1.208V17.041a1.25 1.25 0 0 0-.928-1.207L176.25.177a5.283 5.283 0 0 0-2.7-.004 702.79 702.79 0 0 1-5.736 1.473l-.617.156h-.002l-.017.005-13.121 3.498.014.052Zm30.831 95.319c.31-.237.712-.316 1.088-.213l11.054 3.012c.544.148.922.642.922 1.206v4.884a1.25 1.25 0 0 1-1.579 1.206l-11.054-3.012a1.25 1.25 0 0 1-.922-1.206v-4.884c0-.39.182-.757.491-.993Zm2.009 2.629v2.293l8.555 2.331v-2.293l-8.555-2.331Zm-2.009 8.132a1.25 1.25 0 0 1 1.088-.212l11.054 3.012c.544.148.922.642.922 1.206v4.884a1.251 1.251 0 0 1-1.579 1.206l-11.054-3.012a1.25 1.25 0 0 1-.922-1.206v-4.884c0-.39.182-.757.491-.994Zm2.009 2.63v2.293l8.555 2.331v-2.293l-8.555-2.331Zm-2.009 6.992c.31-.236.712-.315 1.088-.213l11.054 3.012c.544.149.922.643.922 1.206v21.96l4.606 1.255a1.251 1.251 0 0 1 .592 2.051l-11.054 12.048a1.252 1.252 0 0 1-1.988-.193l-11.054-18.072a1.25 1.25 0 0 1 1.395-1.858l3.948 1.076v-21.279c0-.389.182-.756.491-.993Zm2.009 2.63v21.278a1.248 1.248 0 0 1-1.578 1.206l-2.49-.678 8.546 13.971 8.546-9.314-3.548-.967a1.25 1.25 0 0 1-.921-1.206v-21.96l-8.555-2.33ZM45.326 149.123a137.056 137.056 0 0 1 70.633 0l.938.25c2.366.631 3.449 2.739 3.25 4.723v65.579l5.043-1.345v-9.942c0-.281.095-.554.269-.775l7.278-9.219a4.258 4.258 0 0 1 2.241-1.473l11.687-3.116a4.235 4.235 0 0 1 2.19 0l15.816 4.217v-8.059c0-.566.381-1.062.928-1.207l22.915-6.111a4.235 4.235 0 0 1 2.19 0l66.345 17.691c.547.146.928.642.928 1.208v17.838l15.95 4.254a54.236 54.236 0 0 1 19.91 10.055l2.361 1.889-.092.115h15.005c.398 0 .772.19 1.007.51l21.595 29.386 44.31 35.448a6.247 6.247 0 0 1 2.344 4.879v34.05a7.248 7.248 0 0 1-5.382 7.003l-178.939 47.717a25.251 25.251 0 0 1-12.875.036L5.455 348.397a7.25 7.25 0 0 1-5.421-7.016v-50.008c-.158-.786.238-1.679 1.188-1.934l39.892-10.702.025-.054V154.082a4.552 4.552 0 0 1 .009-.993c.195-1.632 1.29-3.196 3.24-3.716l.938-.25Zm-1.687 4.833v-.635c.105-.696.557-1.309 1.393-1.532l.939-.251a134.567 134.567 0 0 1 69.344 0l.938.251c1.889.503 1.889 3.184 0 3.688l-.938.25a134.566 134.566 0 0 1-69.344 0l-.939-.25c-.815-.218-1.285-.825-1.393-1.521Zm0 3.669v117.723a4.61 4.61 0 0 1 .75-.268l.938-.251a137.022 137.022 0 0 1 26.504-4.344l.057-.004 7.706-2.067c.007-2.835 1.605-5.567 4.442-6.77l.648-.275a172.79 172.79 0 0 0 3.496-1.507c1.488-.668 3.49-.942 5.426-.842v-7.872c-1.21.326-2.376.415-3.45.49l-.144.01c-1.467.102-2.77.193-4.133.682-1.373.492-2.874 1.419-4.55 3.337-3.696 4.224-7.866 6.919-12.167 6.966-4.384.048-8.43-2.647-11.834-8.112-2.492-4.001-3.191-6.256-2.984-8.002.094-.786.372-1.405.571-1.849l.06-.135c.203-.457.323-.785.33-1.238.019-.997-.51-2.909-3.419-7.326-2.712-4.118-3.757-7.519-3.467-10.224.262-2.438 1.587-4.141 3.369-5.138-.564-3.825-.116-9.02 1.815-15.722.908-3.152 3.09-5.451 5.604-6.782 2.09-1.106 4.48-1.579 6.66-1.271.264-2.312.043-4.845-.306-7.479-.083-.631-.175-1.271-.266-1.913-.24-1.684-.481-3.379-.59-4.953-.152-2.179-.073-4.346.698-6.208 1.22-2.946 3.627-5.182 6.286-5.861 1.347-.344 2.773-.288 4.098.316 1.328.605 2.452 1.713 3.278 3.298.032.06.063.121.093.183a10.216 10.216 0 0 1 1.843-.405c1.948-.23 4.105-.033 5.881.716 1.788.755 3.355 2.163 3.62 4.379.235 1.965-.443 4.329-1.662 6.009-.62.852-1.439 1.612-2.45 2.02-1.048.422-2.22.431-3.398-.106-.627-.285-1.496-.478-2.562-.642a57.16 57.16 0 0 0-1.113-.156c-.212.935-.44 1.848-.651 2.698-.113.453-.221.888-.32 1.3-.368 1.521-.597 2.671-.596 3.443a2.197 2.197 0 0 0 .033.416c.13-.007.366-.045.742-.177.51-.177 1.18-.492 2.046-.986 2.863-1.632 5.39-2.238 7.509-2.026 2.144.214 3.785 1.263 4.783 2.74 1.957 2.895 1.317 7.243-2.134 9.431-1.748 1.109-4.175 1.794-6.64 2.359-.99.227-1.98.434-2.968.641-1.574.329-3.137.655-4.664 1.056-2.463.647-4.54 1.422-5.953 2.509-1.337 1.029-2.067 2.316-1.949 4.189.286 4.529-.795 8.272-2.59 10.923l-.378-.256c1.083 1.853 1.463 3.782 1.77 5.61.035.212.07.423.103.632.104.632.206 1.254.328 1.873a7.81 7.81 0 0 0 .3-.076c.602-.165 1.304-.43 2.03-.787 1.103-.541 2.186-1.257 3.032-2.082a10.992 10.992 0 0 1-3.009-6.837c-.422-6.081 4.165-11.353 10.246-11.776 6.081-.423 11.353 4.164 11.776 10.246.37 5.315-3.09 10.013-8.028 11.394-.503.814-1.03 1.545-1.54 2.254-1.48 2.052-2.82 3.912-3.036 7.052.294-.273.6-.572.93-.898l.164-.163c.487-.481 1.018-1.007 1.592-1.526 1.289-1.163 2.85-2.34 4.881-3.114a11.376 11.376 0 0 1 6.48-.498v-7.884c0-.566.38-1.061.928-1.207l3.694-.985c.435-2.335.501-4.101.357-5.504-.18-1.752-.692-3.004-1.322-4.162-.23-.424-.486-.846-.75-1.282-1.192-1.971-2.559-4.229-2.554-8.218.005-4.321 3.375-7.961 7.144-8.823 1.938-.443 4.034-.167 5.844 1.159 1.794 1.314 3.164 3.554 3.904 6.776 1.496 6.517 1.672 11.945.937 16.437l5.859-1.562v-62.715a4.839 4.839 0 0 1-.75.266l-.938.251a137.078 137.078 0 0 1-70.633 0l-.938-.251a4.805 4.805 0 0 1-.749-.267Zm74.008 65.304-6.448 1.719a23.604 23.604 0 0 1-2.244 5.531l8.692 2.317v-9.567Zm0 12.155-10.232-2.729c-1.859 1.934-4.271 2.376-6.302 1.606-1.756-.666-3.12-2.22-3.424-4.199l-1.583-.423v7.112c.705.337 1.357.741 1.939 1.194 1.337 1.039 2.374 2.39 2.821 3.892.458 1.538.279 3.192-.763 4.654-1.325 1.86-2.647 3.091-3.997 3.901v9.285c1.603.388 3.14 1.111 4.113 2.314a5.168 5.168 0 0 1 1.036 4.345l16.392 4.398v-35.35Zm2.5 36.021V235.75l58.382 15.569a51.75 51.75 0 0 1 18.994 9.593l79.504 63.603-86.955-34.642a1.131 1.131 0 0 0-.139-.046l-69.786-18.722Zm-2.5 1.917-17.524-4.701a5.178 5.178 0 0 1-.838.781l-2.722 2.027a137.084 137.084 0 0 1 19.396 3.7l.938.251c.266.07.516.161.75.268v-2.326Zm1.588 9.065c-.542.692-1.32 1.241-2.338 1.512l-.938.25a137.049 137.049 0 0 1-70.632 0l-.939-.25c-1.017-.272-1.795-.821-2.337-1.513-1.269 1.845-3.426 4.241-6.697 5.611.277.112.59.232.938.359 2.689.984 6.943 2.207 11.816 3.487a128.157 128.157 0 0 0 64.992.012c4.893-1.282 9.168-2.508 11.872-3.494.356-.13.674-.252.956-.366-2.681-1.124-4.61-2.937-5.907-4.551a17.71 17.71 0 0 1-.786-1.057Zm-80.162-.214L4.94 291.03l90.238 24.064c.047.012.094.028.14.046l90.138 35.91a13.748 13.748 0 0 0 8.632.512l86.307-23.015-91.18-36.325-69.068-18.529v4.99l.006.014c.073.156.186.388.343.676a15.1 15.1 0 0 0 1.474 2.206c1.354 1.686 3.426 3.519 6.372 4.304.229.062.494.153.736.307.239.152.583.449.705.953.126.521-.06.953-.227 1.207a2.371 2.371 0 0 1-.545.563c-.652.498-1.821 1-3.182 1.497-2.824 1.029-7.198 2.28-12.095 3.564a130.65 130.65 0 0 1-66.261-.013c-4.877-1.281-9.23-2.53-12.04-3.557-1.353-.495-2.518-.996-3.166-1.495a2.357 2.357 0 0 1-.543-.565 1.532 1.532 0 0 1-.22-1.209c.124-.501.467-.795.705-.946.242-.153.506-.245.735-.306 2.784-.742 4.786-2.424 6.129-4.01Zm244.04 48.537-88.381 23.568a16.25 16.25 0 0 1-10.201-.605L94.462 317.49 2.534 292.976v40.343L183.8 380.572a22.75 22.75 0 0 0 11.601-.032l87.711-23.39v-26.74Zm0 29.327-87.067 23.218a25.24 25.24 0 0 1-12.875.036L2.534 335.903v5.478a4.751 4.751 0 0 0 3.552 4.597L183.8 392.305c3.805.991 7.802.98 11.601-.033l87.711-23.39v-9.145Zm2.5 8.479v-39.433c0-.38-.173-.739-.469-.976l-86.059-68.847a54.231 54.231 0 0 0-19.912-10.056l-59.026-15.741v-10.901l5.043-1.345v2.537a4.25 4.25 0 0 0 3.155 4.107l64.891 17.304c.211.056.433.056.644 0l60.942-16.251a4.251 4.251 0 0 0 3.155-4.107v-2.537l15.306 4.081a51.774 51.774 0 0 1 18.993 9.592l.065.052h-11.433c-.108 0-.217.014-.322.042l-72.545 19.346a1.25 1.25 0 0 0-.459 2.184l73.285 58.629c.31.248.72.334 1.103.231l72.546-19.345a1.253 1.253 0 0 0 .685-1.948l-15.78-21.474 37.04 29.632a3.744 3.744 0 0 1 1.406 2.926v34.05a4.749 4.749 0 0 1-3.526 4.587l-88.728 23.661ZM94.012 273.028l-2.121 1.58c-3.557 2.648-8.562 1.668-10.981-1.906-2.915-.006-5.83.083-8.74.266l-.178.012a134.399 134.399 0 0 0-26.021 4.265l-.939.25c-.862.23-1.316.875-1.402 1.598-.109.914.37 1.815 1.402 2.09l.939.25c.618.165 1.237.326 1.857.482a242.41 242.41 0 0 1 4.939-1.247c19.978-4.848 40.867-3.99 60.69 1.247.62-.156 1.239-.317 1.858-.482l.938-.25c1.033-.275 1.511-1.176 1.402-2.09-.086-.723-.539-1.368-1.402-1.598l-.938-.25a134.514 134.514 0 0 0-21.337-3.881l.034-.336Zm14.022 10.132c-18.022-4.071-36.747-4.414-54.678-.063l-.187.046a134.575 134.575 0 0 0 54.865.017Zm-30.992-39.829c-.17-5.005 1.966-7.957 3.766-10.438a10.986 10.986 0 0 1-5.734-1.819c-1.124 1.148-2.53 2.064-3.853 2.714a14.31 14.31 0 0 1-2.472.954c-.11.03-.222.059-.334.085.078.232.164.465.257.699a1.25 1.25 0 0 1-2.324.924c-.776-1.954-1.083-3.843-1.356-5.515l-.102-.621c-.31-1.86-.648-3.428-1.537-4.888-.871-1.431-2.483-2.507-4.373-3.046-1.458-.415-2.979-.48-4.295-.201a5.9 5.9 0 0 0 .063.201l-2.225.72c-.887.652-1.478 1.604-1.618 2.913-.2 1.874.498 4.68 3.069 8.583 2.91 4.418 3.864 6.906 3.831 8.746-.017.965-.305 1.665-.543 2.204l-.05.113c-.211.477-.338.763-.385 1.155-.097.82.156 2.423 2.623 6.385 3.152 5.06 6.507 6.969 9.684 6.934 3.26-.035 6.812-2.111 10.312-6.112 1.921-2.196 3.767-3.391 5.589-4.044 1.696-.609 3.311-.72 4.72-.817l.226-.016c1.5-.105 2.765-.223 4.03-.778 1.24-.543 2.58-1.555 4.056-3.626.56-.787.659-1.631.403-2.489-.266-.893-.934-1.835-1.96-2.633-2.05-1.595-5.275-2.413-8.494-1.187-1.633.621-2.93 1.581-4.096 2.633-.528.477-1.018.962-1.51 1.448l-.163.163c-.536.529-1.084 1.065-1.643 1.531-1.118.931-2.45 1.728-4.144 1.643-1.651-.083-3.348-.991-5.265-2.705a1.25 1.25 0 1 1 1.666-1.863c1.753 1.568 2.918 2.031 3.724 2.071.153.008.305.001.457-.021Zm-22.849-23.604c1.767-.369 3.698-.257 5.472.249 1.691.482 3.33 1.348 4.592 2.598 1.241-2.114 2.037-5.088 1.803-8.791-.178-2.812 1.014-4.863 2.92-6.329 1.83-1.407 4.317-2.282 6.842-2.945 1.57-.412 3.267-.768 4.9-1.11.973-.203 1.923-.402 2.808-.605 2.474-.568 4.513-1.18 5.86-2.034 2.234-1.416 2.587-4.166 1.402-5.92-.572-.847-1.537-1.51-2.961-1.653-1.45-.145-3.456.248-6.021 1.711-.936.534-1.753.928-2.46 1.175-.689.24-1.385.382-2.035.288-.73-.106-1.322-.502-1.677-1.133-.313-.554-.388-1.193-.388-1.752-.001-1.12.31-2.559.665-4.033.108-.446.221-.902.337-1.367.194-.777.394-1.578.582-2.4-.99-.177-2.015-.429-2.855-.877-.974-.519-1.814-1.371-1.973-2.705-.272-2.278 1.243-4.277 2.928-5.628.587-.47 1.237-.898 1.92-1.268l-.005-.008c-.614-1.177-1.36-1.842-2.099-2.179-.74-.337-1.573-.391-2.442-.169-1.773.453-3.625 2.052-4.596 4.396-.545 1.317-.657 3.013-.513 5.078.102 1.478.324 3.034.559 4.682.094.661.19 1.337.282 2.029.618 4.674 1.024 10-1.84 14.261a1.25 1.25 0 0 1-2.075-1.394 9.98 9.98 0 0 0 1.237-2.605c-1.553-.181-3.345.158-4.986 1.026-2 1.059-3.676 2.853-4.371 5.265-1.79 6.212-2.194 10.853-1.812 14.147Zm112.978-21.038 48.028 12.807c.548.146.928.642.928 1.208v5.571a1.75 1.75 0 0 0 2.201 1.691l12.161-3.243a1.75 1.75 0 0 0 1.299-1.691v-6.21l-64.617-17.232v7.099Zm3.601-8.726 62.266 16.605 10.941-2.918-62.266-16.604-10.941 2.917Zm15.792-4.211 62.267 16.604 3.045-.812-61.816-16.484a1.768 1.768 0 0 0-.902 0l-2.594.692Zm68.913 17.419-21.189 5.651v6.21a4.25 4.25 0 0 1-3.155 4.106l-12.161 3.243c-2.698.72-5.345-1.314-5.345-4.106v-3.944l-10.887 2.904a1.75 1.75 0 0 0-.923.606l-7.009 8.879v15.31l59.37-15.832a1.75 1.75 0 0 0 1.299-1.691v-21.336Zm-63.169 38.859v-14.784l-64.618-17.231v13.439a1.75 1.75 0 0 0 1.299 1.691l63.319 16.885ZM128.6 207.67l64.486 17.196 6.769-8.574a4.246 4.246 0 0 1 2.24-1.473l7.931-2.115-61.815-16.484a1.746 1.746 0 0 0-.902 0l-11.687 3.117a1.75 1.75 0 0 0-.923.606l-6.099 7.727Zm-42.69-30.839c-1.293-.545-2.998-.728-4.614-.536-1.52.18-3.378.984-4.798 2.122-1.471 1.179-2.125 2.415-2.01 3.381.034.287.177.534.667.795.54.288 1.34.494 2.38.666a48.59 48.59 0 0 0 1.594.228l.165.021c.498.065 1.013.132 1.515.209 1.095.168 2.256.4 3.219.838.552.251 1.012.229 1.427.062.452-.182.927-.572 1.362-1.17.888-1.223 1.355-2.965 1.203-4.243-.123-1.027-.83-1.832-2.11-2.373Zm15.751 23.137c-2.746.628-5.198 3.344-5.202 6.388-.004 3.245.978 4.881 2.123 6.79.287.477.584.972.878 1.514.741 1.364 1.39 2.936 1.612 5.101.22 2.142.015 4.796-.843 8.33-.415 1.711.487 3.046 1.77 3.532 1.225.465 3.003.196 4.349-1.953 3.046-4.861 4.658-12.353 2.066-23.645-.65-2.831-1.775-4.461-2.945-5.318-1.154-.846-2.488-1.041-3.808-.739Zm-11.992 21.3a8.537 8.537 0 1 0-17.034 1.184 8.539 8.539 0 0 0 17.034-1.184Zm191.403 16.927-63.171 16.846h20.501l63.17-16.846h-20.5Zm29.537.178-19.465 5.191c21.042 7.673 35.57 21.369 55.889 47.715l2.051-.548-38.475-52.358Zm40.065 54.521-69.937 18.675 1.413 1.923 69.952-18.654-1.428-1.944Zm-71.526 16.512 65.266-17.428c-21.001-27.117-35.541-40.15-57.605-47.259l-46.152 12.308 38.491 52.379Zm-41.215-51.865h-26.007l63.104 50.483-37.097-50.483Zm-143.764 4.032c-1.877-.207-3.78.038-4.964.57-1.07.481-2.265.986-3.554 1.532l-.64.271c-2.648 1.122-3.712 4.359-2.28 6.948 1.529 2.763 5.163 3.573 7.667 1.708l7.394-5.505a2.68 2.68 0 0 0 .483-3.834c-.682-.843-2.187-1.479-4.106-1.69Zm47.741 28.225c.212-.057.434-.057.646 0l11.844 3.173a1.25 1.25 0 0 1-.001 2.415l-47.377 12.643a1.238 1.238 0 0 1-.645 0l-11.844-3.163a1.25 1.25 0 0 1 0-2.415l47.377-12.653Zm-18.525 7.535 7.004 1.873 18.848-5.03-7.005-1.877-18.847 5.034Zm2.16 3.165-7.001-1.872-7.001 1.869 7.001 1.872 7.001-1.869ZM113.7 303.66l-7-1.871-7 1.869 7 1.87 7-1.868Zm74.008-10.675c.26-.07.536-.053.786.047l11.844 4.737c.475.19.786.65.786 1.161v2.321l4.35-1.16c.261-.069.536-.053.787.047l11.844 4.738c.474.19.786.649.786 1.161v2.321l4.35-1.16c.26-.07.536-.053.786.047l11.844 4.738c.475.189.786.649.786 1.16v3.078c2.838.021 6.042.467 8.097 1.289.958.383 1.765.886 2.305 1.518.516.604.831 1.396.652 2.245v4.563c.176.851-.124 1.65-.702 2.25-.58.602-1.429 1.009-2.397 1.268-1.673.446-4.051.536-6.327.384-2.281-.152-4.649-.559-6.303-1.221-.852-.341-1.576-.773-2.103-1.3-.523-.523-.921-1.218-.903-2.034v-3.504l-5.007 1.335.058.023c.827.331 1.532.747 2.054 1.252.52.503.928 1.169.951 1.96.002.04.002.079.001.119v5.431c.001.039.001.079-.001.118-.024.814-.454 1.475-1.02 1.947-.555.462-1.29.794-2.127 1.017-1.673.446-4.051.537-6.328.385-1.575-.105-3.193-.333-4.589-.681v2.247c0 .566-.38 1.061-.927 1.207l-29.611 7.896c-.26.07-.536.053-.786-.047l-11.845-4.737a1.251 1.251 0 0 1-.785-1.161v-2.321l-4.35 1.16a1.256 1.256 0 0 1-.787-.047l-11.844-4.738a1.25 1.25 0 0 1-.786-1.161v-2.321l-4.35 1.16c-.26.07-.536.053-.786-.047l-11.844-4.737a1.25 1.25 0 0 1-.786-1.161v-2.321l-4.35 1.16c-.26.069-.536.053-.786-.047l-11.844-4.738a1.25 1.25 0 0 1-.786-1.161v-5.527c0-.566.381-1.062.928-1.208l11.844-3.158c.26-.07.536-.053.786.047l4.208 1.683v-2.102c0-.566.381-1.061.928-1.207l11.844-3.159c.261-.069.536-.053.787.047l4.207 1.684v-2.102c0-.567.381-1.062.928-1.208l11.845-3.159c.26-.069.536-.052.786.048l4.208 1.683v-2.102c0-.566.38-1.062.928-1.208l17.766-4.737Zm-16.194 9.047 5.136 2.054c.475.19.786.65.786 1.161v.733l2.382.953 1.968-.525c.26-.069.536-.053.786.047l1.984.794 2.224-.594v-.618c0-.567.381-1.062.928-1.208l10.916-2.911v-1.361l-16.194 4.319c-.26.069-.536.052-.786-.048l-10.13-4.052v1.256Zm2.71-2.864 7.963 3.185 13.727-3.661-7.963-3.185-13.727 3.661Zm15.056 9.97v-1.255l10.13 4.052c.25.1.526.116.786.047l16.195-4.318v1.36l-10.917 2.911a1.25 1.25 0 0 0-.928 1.208v.619l-2.224.593-1.984-.793c-.25-.1-.525-.117-.786-.047l-1.968.524-2.382-.953v-.733c0-.511-.311-.97-.786-1.16l-5.136-2.055Zm.712 2.978-7.963-3.185-7.805 2.081 7.963 3.185 7.805-2.081Zm-20.978-.723v-.619c0-.566.38-1.062.928-1.208l4.994-1.331v-1.361l-10.272 2.739c-.261.07-.536.053-.787-.047l-10.13-4.052v1.256l5.137 2.054c.474.19.786.65.786 1.161v.733l2.382.952 1.968-.524c.26-.07.536-.053.786.047l1.983.793 2.225-.593Zm2.5 2.483 5.136 2.055c.475.189.786.649.786 1.16v.733l2.382.953 1.968-.525c.26-.069.536-.053.786.047l1.984.794 2.224-.593v-.619c0-.567.381-1.062.928-1.208l4.994-1.332v-1.361l-10.272 2.74c-.26.069-.536.053-.786-.047l-10.13-4.052v1.255Zm17.766 7.107v-1.256l10.13 4.052c.25.1.526.117.786.047l10.272-2.739v1.426c-1.002.42-1.855 1.084-2.132 2.083l-6.014 1.603-1.984-.793c-.25-.1-.525-.117-.786-.047l-1.968.525-2.382-.953v-.733a1.25 1.25 0 0 0-.786-1.161l-5.136-2.054Zm.712 2.977-7.963-3.185-7.805 2.081 7.963 3.185 7.805-2.081Zm-20.978-.723v-.619c0-.566.38-1.061.928-1.207l4.994-1.332v-1.361l-10.272 2.739c-.261.07-.536.053-.787-.047l-10.13-4.052v1.256l5.137 2.054c.474.19.786.65.786 1.161v.733l2.382.953 1.968-.525c.26-.069.536-.053.786.047l1.983.794 2.225-.594Zm2.5 2.483 5.136 2.055c.475.19.786.649.786 1.16v.733l2.382.953 12.884-3.436v-1.36l-10.272 2.739c-.26.069-.536.053-.786-.047l-10.13-4.052v1.255Zm.712 2.978-7.963-3.186-7.806 2.082 7.964 3.185 7.805-2.081Zm-20.979-.723v-.619c0-.566.381-1.062.928-1.208l4.995-1.331v-1.361l-10.273 2.739c-.26.07-.536.053-.786-.047l-10.13-4.052v2.835l10.673 4.269 4.593-1.225Zm-17.766-7.107v-.618c0-.567.381-1.062.928-1.208l4.994-1.332v-1.361l-10.272 2.74c-.26.069-.536.052-.786-.048l-10.13-4.052v2.835l10.673 4.269 4.593-1.225Zm-12.556-7.487 7.963 3.185 7.805-2.081-7.963-3.186-7.805 2.082Zm23.36 3.027 1.968-.525c.261-.069.536-.052.787.048l1.983.793 2.224-.593v-.619c0-.566.381-1.062.928-1.208l4.995-1.332v-1.36l-10.273 2.739c-.26.069-.536.053-.786-.047l-10.13-4.052v1.255l5.136 2.055c.475.19.786.649.786 1.16v.733l2.382.953Zm-5.594-7.765 7.963 3.185 7.806-2.081-7.964-3.185-7.805 2.081Zm0 11.844 7.805-2.081 7.964 3.185-7.806 2.082-7.963-3.186Zm15.056 8.715v2.835l10.674 4.269 4.593-1.224v-.619c0-.567.38-1.062.928-1.208l4.994-1.332v-1.361l-10.272 2.74a1.256 1.256 0 0 1-.787-.048l-10.13-4.052Zm17.767 7.107v2.835l10.673 4.269 28.281-7.542v-2.94l-28.038 7.477c-.26.07-.536.053-.786-.047l-10.13-4.052Zm41.454-4.315c1.279.383 2.988.659 4.756.777 2.165.145 4.229.038 5.517-.306.621-.165.985-.367 1.17-.521a.608.608 0 0 0 .122-.127v-2.666a8.051 8.051 0 0 1-.648.203c-1.673.446-4.051.536-6.328.384-2.28-.152-4.648-.559-6.303-1.221a8.51 8.51 0 0 1-.478-.208v1.272l1.407.563c.474.189.785.649.785 1.16v.69Zm-4.692-3.413v-1.382l-2.073.553 2.073.829Zm2.5-3.307v-.045a.863.863 0 0 1 .152-.137c.202-.15.556-.328 1.113-.476 1.089-.291 2.746-.414 4.57-.354a30.255 30.255 0 0 1 1.893.127c1.822.182 3.488.527 4.594.969.632.253 1.026.516 1.244.727.11.106.158.181.179.222a.735.735 0 0 1-.11.109c-.185.155-.549.356-1.17.522-1.288.343-3.352.45-5.517.306-2.162-.144-4.235-.526-5.541-1.048-.567-.227-.945-.463-1.176-.665a1.122 1.122 0 0 1-.231-.257Zm13.762 1.006a.041.041 0 0 1 .004-.009l-.004.009Zm-16.78 4.787-7.963-3.186-25.571 6.819 7.963 3.186 25.571-6.819Zm16.784.733-.004.007c.002-.007.004-.01.004-.007Zm-68.085-16.05 7.964 3.185 7.805-2.082-7.963-3.185-7.806 2.082Zm60.459 6.022a31.461 31.461 0 0 1 1.607.107l10.54-2.811a2.7 2.7 0 0 1 .665-1.129c.58-.601 1.428-1.008 2.396-1.266a12.95 12.95 0 0 1 2.033-.348v-1.555l-16.194 4.319a1.255 1.255 0 0 1-.787-.048l-10.13-4.052v1.256l5.137 2.054c.474.19.785.65.785 1.161v.733l3.948 1.579Zm-9.157-2.55-7.964-3.185-7.805 2.081 7.963 3.186 7.806-2.082Zm1.997-5.841 7.963 3.185 13.728-3.661-7.963-3.185-13.728 3.661Zm21.72 9.388c.165.078.334.152.506.22 1.654.662 4.022 1.07 6.303 1.222 2.276.152 4.654.061 6.327-.385.202-.054.403-.115.599-.185v2.708l-.002.002c-.144.149-.508.391-1.241.587-1.288.343-3.352.45-5.517.306-2.161-.144-4.234-.526-5.541-1.048-.652-.261-1.05-.533-1.263-.746-.126-.127-.162-.204-.171-.23v-2.451Zm-75.019-18.864 7.964 3.186 7.805-2.082-7.963-3.185-7.806 2.081Zm57.224 1.894-13.728 3.661-7.963-3.186 13.727-3.66 7.964 3.185Zm-191.847 4.233v1.532a1.25 1.25 0 0 1-1.572 1.208l-2.87-.766v14.39l12.306 3.281v-14.389l-3.514-.938a1.25 1.25 0 0 1-.928-1.207v-2.198l-3.422-.913Zm-2.5-.86a1.839 1.839 0 0 1 2.312-1.777l4.442 1.184a2.249 2.249 0 0 1 1.668 2.172v1.431l2.772.74a2.249 2.249 0 0 1 1.67 2.174v14.907a2.25 2.25 0 0 1-2.83 2.174l-12.808-3.416a2.246 2.246 0 0 1-1.668-2.173v-14.907a2.25 2.25 0 0 1 2.83-2.174l1.612.43v-.765Zm224.492 10.659c-1.931-.772-5.458-1.213-8.367-1.091-1.077.045-2.005.166-2.691.349-.733.195-1.097.437-1.241.586a.55.55 0 0 0-.039.045c.027.052.098.16.274.308.234.197.606.423 1.148.64 1.307.523 3.38.905 5.541 1.049 2.165.144 4.229.037 5.517-.306.532-.142.88-.312 1.088-.459a.868.868 0 0 0 .193-.174.696.696 0 0 0-.091-.126c-.183-.216-.589-.524-1.332-.821Zm1.436.985-.003-.015c.005.012.003.015.003.015Zm125.141-2.697c.308.237.488.603.488.992v17.963c0 .567-.38 1.062-.928 1.208l-17.766 4.738a1.25 1.25 0 0 1-1.572-1.208v-17.964c0-.566.381-1.062.928-1.207l17.766-4.738c.375-.1.776-.02 1.084.216Zm-8.395 4.321v15.376l6.383-1.702v-15.376l-6.383 1.702Zm-2.5 16.043v-15.376l-1.941.517v15.377l1.941-.518Zm-4.441 1.184v-15.376l-1.942.518v15.376l1.942-.518Z" clip-rule="evenodd"/> fill="currentColor"
</svg>