<?xml version="1.0" encoding="utf-8"?>
<!-- Generator: Adobe Illustrator 27.4.0, SVG Export Plug-In . SVG Version: 6.00 Build 0)  -->
<svg version="1.1" id="Layer_1" xmlns="http://www.w3.org/2000/svg" xmlns:xlink="http://www.w3.org/1999/xlink" x="0px" y="0px"
	 viewBox="0 0 14 14" style="enable-background:new 0 0 14 14;" xml:space="preserve">
<g>
	<path d="M12.5,7.1h-0.3V5.5c0-0.2-0.1-0.5-0.3-0.6c-0.2-0.2-0.4-0.3-0.6-0.3H8.1L7.5,3.8C7.4,3.7,7.3,3.6,7.2,3.5
		C7.1,3.5,6.9,3.4,6.8,3.4H2.3c-0.2,0-0.5,0.1-0.6,0.3S1.4,4.1,1.4,4.3v2.8C1,7.1,0.6,7.5,0.6,8v4.5c0,0.5,0.4,0.9,0.9,0.9h11
		c0.5,0,0.9-0.4,0.9-0.9V8C13.4,7.5,13,7.1,12.5,7.1z M2.2,4.3c0,0,0-0.1,0-0.1c0,0,0.1,0,0.1,0h4.5l0.1,0l0.6,1
		c0.1,0.1,0.2,0.2,0.3,0.2h3.4c0,0,0.1,0,0.1,0c0,0,0,0.1,0,0.1v1.5H2.2V4.3z M12.6,12.5c0,0.1-0.1,0.1-0.1,0.1h-11
		c-0.1,0-0.1-0.1-0.1-0.1V8c0-0.1,0.1-0.2,0.1-0.2h11c0.1,0,0.1,0.1,0.1,0.2V12.5z"/>
</g>
<g>
	<path d="M8.6,9.4H5.4C5.2,9.4,5.1,9.2,5.1,9s0.2-0.4,0.4-0.4h3.1c0.2,0,0.4,0.2,0.4,0.4S8.8,9.4,8.6,9.4z"/>
</g>
<g>
	<path d="M3,1.4h3.8l0.1,0l0.6,1c0.1,0.1,0.2,0.2,0.3,0.2h2.7c0,0,0,0,0,0c0,0,0.1,0,0.1,0s0,0.1,0,0.1v0.7c0,0.2,0.2,0.4,0.4,0.4
		s0.4-0.2,0.4-0.4V2.7c0-0.2-0.1-0.5-0.3-0.6c-0.2-0.2-0.4-0.3-0.6-0.3c0,0,0,0,0,0H8.1L7.5,1C7.4,0.9,7.3,0.8,7.2,0.7
		C7.1,0.7,6.9,0.6,6.8,0.6H3c-0.1,0-0.2,0-0.3,0.1c-0.1,0-0.2,0.1-0.3,0.2C2.3,1,2.2,1.1,2.2,1.2c0,0.1-0.1,0.2-0.1,0.3v0.6
		c0,0.2,0.2,0.4,0.4,0.4s0.4-0.2,0.4-0.4V1.5l0-0.1L3,1.4z"/>
</g>
</svg>
