<svg xmlns="http://www.w3.org/2000/svg" fill="currentColor" viewBox="0 0 14 14">
  <g class="devlog" clip-path="url(#a)">
    <g class="Group">
      <path d="M12.5 7.1h-.3V5.5c0-.2-.1-.5-.3-.6-.2-.2-.4-.3-.6-.3H8.1l-.6-.8-.3-.3c-.1 0-.3-.1-.4-.1H2.3c-.2 0-.5.1-.6.3-.1.2-.3.4-.3.6v2.8c-.4 0-.8.4-.8.9v4.5c0 .5.4.9.9.9h11c.5 0 .9-.4.9-.9V8c0-.5-.4-.9-.9-.9ZM2.2 4.3v-.1h4.7l.6 1c.1.1.2.2.3.2h3.5V7H2.2V4.3Zm10.4 8.2c0 .1-.1.1-.1.1h-11c-.1 0-.1-.1-.1-.1V8c0-.1.1-.2.1-.2h11c.1 0 .1.1.1.2v4.5Z" class="Vector"/>
    </g>
    <g class="Group">
      <path d="M8.6 9.4H5.4c-.2 0-.3-.2-.3-.4s.2-.4.4-.4h3.1c.2 0 .4.2.4.4s-.2.4-.4.4Z" class="Vector"/>
    </g>
    <g class="Group">
      <path d="M3 1.4h3.9l.6 1c.1.1.2.2.3.2h2.8v.8c0 .2.2.4.4.4s.4-.2.4-.4v-.7c0-.2-.1-.5-.3-.6-.2-.2-.4-.3-.6-.3H8.1L7.5 1 7.2.7c-.1 0-.3-.1-.4-.1H3c-.1 0-.2 0-.3.1-.1 0-.2.1-.3.2-.1.1-.2.2-.2.3 0 .1-.1.2-.1.3v.6c0 .2.2.4.4.4s.4-.2.4-.4v-.7H3Z" class="Vector"/>
    </g>
  </g>
  <defs>
    <clipPath id="a" class="a">
      <path d="M0 0h14v14H0z"/>
    </clipPath>
  </defs>
</svg>