<svg xmlns="http://www.w3.org/2000/svg" fill="currentColor" viewBox="0 0 14 14">
  <g class="fluxicon" clip-path="url(#a)">
    <g class="Group">
      <g class="Group">
        <path d="M13 8.8c-1.1-1.8-1.1-2-.1-4.6.5-1.3.4-2.5-.4-3.2-.7-.6-1.8-.6-2.6 0-1 .6-1.2 1.7-1.3 2.7-.3 0-.6-.1-.9-.1-1.1 0-2.1 1-2.1 2.1 0 .3.1.6.2.9-.5.1-1 .3-1.5.5.1-.3.1-.7-.1-1.2-.3-.6-.9-.9-1.6-.9-.8 0-1.4.6-1.7 1.3-.5 1.4-.3 3.2.4 4.6.6 1 1.4 1.7 2.4 2 .2 0 .4.1.5.1.7 0 1.3-.3 1.8-.8s.6-1.2.3-1.8c-.1-.2-.2-.4-.3-.5.2-.2.5-.4 1-.4 1.1-.2 2.1 0 2.5.3l.2.2s-.1.2-.8.3c-1.7.3-1.8 1.2-1.7 1.6.1.9 1.1 1.7 2.3 1.7 2.2 0 3.1-1.1 3.4-1.7.6-1.1.6-2.2.1-3.1ZM7.7 4.4c.8 0 1.4.6 1.4 1.3 0 .8-.6 1.4-1.4 1.4-.4 0-.8-.2-1-.5-.2-.3-.3-.6-.3-.9 0-.7.6-1.3 1.3-1.3Zm-2.2 7.3c-.4.4-1 .6-1.5.5-1-.3-1.6-1-2-1.6-.7-1.2-.8-2.8-.4-4 .2-.6.7-.8 1-.8h.1c.3 0 .6.1.8.4.2.3.1.6 0 .9 0 .2-.1.3-.1.5v.2c0 .1 0 .3.1.5.1.5.5.7.9.9.3.2.6.4.8.7.2.2.3.4.4.7.3.5 0 .9-.1 1.1Zm6.8-.4c-.5.8-1.5 1.3-2.8 1.3-.8 0-1.5-.5-1.5-1 0-.3.4-.6 1.1-.8 1.3-.3 1.4-.9 1.3-1.2-.1-.8-1.7-1.3-3.4-1-.7.1-1.1.4-1.4.6-.3-.3-.6-.5-.8-.6-.4-.2-.5-.3-.6-.5V8c.6-.3 1.3-.5 2-.7h.1c.4.4.9.6 1.5.6C9 7.9 9.9 7 9.9 5.8c0-.6-.2-1.1-.6-1.5v-.2c.2-.9.3-1.8 1-2.3.6-.4 1.3-.4 1.7 0 .5.4.6 1.3.2 2.3-1.1 2.8-1 3.2.1 5.2.4.5.4 1.4 0 2Z" class="Vector"/>
      </g>
    </g>
    <g class="Group">
      <g class="Group">
        <path d="M3.7 5c-.3 0-.6-.1-.8-.4-.5-.4-.6-1.1-.4-1.9.2-.6.8-1.5 1.6-1.9C4.7.5 5.3.5 5.9.7c1 .3 1.4 1.2 1.3 1.9-.1.6-.6 1-1.2 1-.7 0-.8.2-1 .5-.2.3-.4.6-.9.8-.1.1-.3.1-.4.1Zm1.4-3.6c-.2 0-.5.1-.7.2-.6.3-1 1-1.2 1.4-.2.5 0 1 .2 1.1.1.1.3.2.5.1s.3-.2.4-.4c.2-.4.5-.9 1.6-.9.3 0 .4-.1.5-.4.1-.4-.2-.9-.8-1.1h-.5Z" class="Vector"/>
      </g>
    </g>
  </g>
  <defs>
    <clipPath id="a" class="a">
      <path d="M0 0h14v14H0z"/>
    </clipPath>
  </defs>
</svg>