<?xml version="1.0" encoding="utf-8"?>
<!-- Generator: Adobe Illustrator 27.4.0, SVG Export Plug-In . SVG Version: 6.00 Build 0)  -->
<svg version="1.1" id="Layer_1" xmlns="http://www.w3.org/2000/svg" xmlns:xlink="http://www.w3.org/1999/xlink" x="0px" y="0px"
	 viewBox="0 0 14 14" style="enable-background:new 0 0 14 14;" xml:space="preserve">
<g>
	<g>
		<path d="M13,8.8c-1.1-1.8-1.1-2-0.1-4.6c0.5-1.3,0.4-2.5-0.4-3.2c-0.7-0.6-1.8-0.6-2.6,0c-1,0.6-1.2,1.7-1.3,2.7
			C8.3,3.7,8,3.6,7.7,3.6c-1.1,0-2.1,1-2.1,2.1c0,0.3,0.1,0.6,0.2,0.9c-0.5,0.1-1,0.3-1.5,0.5c0.1-0.3,0.1-0.7-0.1-1.2
			C3.9,5.3,3.3,5,2.6,5c-0.8,0-1.4,0.6-1.7,1.3c-0.5,1.4-0.3,3.2,0.4,4.6c0.6,1,1.4,1.7,2.4,2c0.2,0,0.4,0.1,0.5,0.1
			c0.7,0,1.3-0.3,1.8-0.8c0.5-0.5,0.6-1.2,0.3-1.8c-0.1-0.2-0.2-0.4-0.3-0.5c0.2-0.2,0.5-0.4,1-0.4c1.1-0.2,2.1,0,2.5,0.3
			c0.1,0.1,0.2,0.2,0.2,0.2c0,0-0.1,0.2-0.8,0.3c-1.7,0.3-1.8,1.2-1.7,1.6c0.1,0.9,1.1,1.7,2.3,1.7c2.2,0,3.1-1.1,3.4-1.7
			C13.5,10.8,13.5,9.7,13,8.8z M7.7,4.4c0.8,0,1.4,0.6,1.4,1.3c0,0.8-0.6,1.4-1.4,1.4c-0.4,0-0.8-0.2-1-0.5C6.5,6.3,6.4,6,6.4,5.7
			C6.4,5,7,4.4,7.7,4.4z M5.5,11.7c-0.4,0.4-1,0.6-1.5,0.5c-1-0.3-1.6-1-2-1.6C1.3,9.4,1.2,7.8,1.6,6.6c0.2-0.6,0.7-0.8,1-0.8
			c0,0,0.1,0,0.1,0c0.3,0,0.6,0.1,0.8,0.4c0.2,0.3,0.1,0.6,0,0.9c0,0.2-0.1,0.3-0.1,0.5c0,0.1,0,0.1,0,0.2v0c0,0.1,0,0.3,0.1,0.5
			C3.6,8.8,4,9,4.4,9.2c0.3,0.2,0.6,0.4,0.8,0.7c0,0,0,0,0,0c0.2,0.2,0.3,0.4,0.4,0.7C5.9,11.1,5.6,11.5,5.5,11.7z M12.3,11.3
			c-0.5,0.8-1.5,1.3-2.8,1.3c-0.8,0-1.5-0.5-1.5-1c0-0.3,0.4-0.6,1.1-0.8c1.3-0.3,1.4-0.9,1.3-1.2C10.3,8.8,8.7,8.3,7,8.6
			C6.3,8.7,5.9,9,5.6,9.2C5.3,8.9,5,8.7,4.8,8.6C4.4,8.4,4.3,8.3,4.2,8.1c0,0,0-0.1,0-0.1c0.6-0.3,1.3-0.5,2-0.7l0.1,0
			c0.4,0.4,0.9,0.6,1.5,0.6c1.2,0,2.1-0.9,2.1-2.1c0-0.6-0.2-1.1-0.6-1.5l0-0.2c0.2-0.9,0.3-1.8,1-2.3c0.6-0.4,1.3-0.4,1.7,0
			c0.5,0.4,0.6,1.3,0.2,2.3c-1.1,2.8-1,3.2,0.1,5.2C12.7,9.8,12.7,10.7,12.3,11.3z"/>
	</g>
</g>
<g>
	<g>
		<path d="M3.7,5C3.4,5,3.1,4.9,2.9,4.6C2.4,4.2,2.3,3.5,2.5,2.7c0.2-0.6,0.8-1.5,1.6-1.9c0.6-0.3,1.2-0.3,1.8-0.1
			c1,0.3,1.4,1.2,1.3,1.9c-0.1,0.6-0.6,1-1.2,1l0,0c-0.7,0-0.8,0.2-1,0.5C4.8,4.4,4.6,4.7,4.1,4.9C4,5,3.8,5,3.7,5z M5.1,1.4
			c-0.2,0-0.5,0.1-0.7,0.2c-0.6,0.3-1,1-1.2,1.4c-0.2,0.5,0,1,0.2,1.1c0.1,0.1,0.3,0.2,0.5,0.1C4.1,4.1,4.2,4,4.3,3.8
			c0.2-0.4,0.5-0.9,1.6-0.9l0,0c0.3,0,0.4-0.1,0.5-0.4c0.1-0.4-0.2-0.9-0.8-1.1C5.4,1.4,5.3,1.4,5.1,1.4z"/>
	</g>
</g>
</svg>
