<svg xmlns="http://www.w3.org/2000/svg" width="36" height="36" fill="currentColor" viewBox="0 0 36 36">
  <path d="M26.2 28.9H9.8c-.5 0-1-.2-1.4-.6-.4-.3-.6-.8-.6-1.4V9.1c0-.5.2-1 .6-1.4.4-.4.9-.6 1.4-.6h13.8c.5 0 1 .2 1.4.6l2.7 2.6c.2.2.3.4.4.7.1.2.2.5.2.8V27c0 .5-.2 1-.6 1.4-.4.3-.9.5-1.5.5ZM9.8 8.3c-.2 0-.4.1-.5.2-.1.1-.3.4-.3.6V27c0 .2.1.4.2.5.1.1.3.2.5.2h16.5c.2 0 .4-.1.5-.2.1-.1.2-.3.2-.5V11.7c0-.1 0-.2-.1-.3 0-.1-.1-.2-.2-.2L24 8.5c-.1-.1-.3-.2-.5-.2H9.8Zm2 16c-.1 0-.2 0-.3-.1-.3-.2-.4-.6-.2-.9l1.9-2.9c.1-.2.3-.3.5-.4.2-.1.4-.2.6-.2h.6l.6.3 1 .8 2.1-3c.1-.2.3-.4.6-.5.2-.1.5-.2.7-.2.3 0 .5.1.7.2.2.1.4.3.6.5l3.6 5.4c.2.3.1.7-.2.9-.3.2-.7.1-.9-.2l-3.6-5.4-.1-.1h-.2l-.1.1-2.5 3.5c-.1.1-.3.2-.4.3-.2 0-.3 0-.5-.1l-1.5-1.2s-.1 0-.1-.1h-.2l-.1.1-2 2.9c-.2.2-.4.3-.6.3Zm2.8-7.7a2.732 2.732 0 0 1-2.7-2.7c0-.7.3-1.4.8-1.9 1-1 2.8-1 3.8 0 .5.5.8 1.2.8 1.9a2.732 2.732 0 0 1-2.7 2.7Zm0-4.2c-.4 0-.7.2-1 .4-.3.2-.4.6-.4 1s.2.7.4 1c.5.5 1.5.5 2 0 .3-.2.4-.5.4-.9s-.2-.7-.4-1c-.2-.3-.6-.5-1-.5Z"/>
  <path fill-rule="evenodd" d="M1.625 1.25a.375.375 0 0 0-.375.375v3.478a.625.625 0 1 1-1.25 0V1.625C0 .728.728 0 1.625 0h3.478a.625.625 0 1 1 0 1.25H1.625ZM29.522.625c0-.345.28-.625.625-.625h3.478c.898 0 1.625.728 1.625 1.625v3.478a.625.625 0 1 1-1.25 0V1.625a.375.375 0 0 0-.375-.375h-3.478a.625.625 0 0 1-.625-.625Zm5.103 28.897c.345 0 .625.28.625.625v3.478c0 .898-.727 1.625-1.625 1.625h-3.478a.625.625 0 0 1 0-1.25h3.478a.375.375 0 0 0 .375-.375v-3.478c0-.345.28-.625.625-.625Zm-34 0c.345 0 .625.28.625.625v3.478c0 .207.168.375.375.375h3.478a.625.625 0 1 1 0 1.25H1.625A1.625 1.625 0 0 1 0 33.625v-3.478c0-.345.28-.625.625-.625Z" clip-rule="evenodd"/>
</svg>