<svg xmlns="http://www.w3.org/2000/svg" width="99" height="44" fill="currentColor" viewBox="0 0 99 44">
  <path fill="currentColor" d="M0 0h89.38c4.762 0 8.622 3.813 8.622 8.516V33c0 2.352-1.93 4.258-4.31 4.258H81.965v-8.87c3.968 0 7.055-3.178 7.055-7.098s-3.216-7.096-7.184-7.096H0V0Z"/>
  <path fill="#currentColor" d="M78.388 21.29c0-1.96 1.608-3.548 3.592-3.548s3.593 1.589 3.593 3.548c0 1.96-1.609 3.549-3.593 3.549s-3.592-1.589-3.592-3.549Zm.215 7.097H0v8.871h78.603v-8.87Zm-3.592 9.936H0V44h72.856c1.19 0 2.155-.953 2.155-2.129v-3.548Z"/>
</svg>