<svg xmlns="http://www.w3.org/2000/svg" width="33" height="30" fill="currentColor" viewBox="0 0 110 100">
  <path fill="#747474" d="M0 0h90.645C101.335 0 110 8.665 110 19.355V75c0 5.345-4.333 9.677-9.677 9.677H74v-20.16c8.908 0 15.839-7.222 15.839-16.13 0-8.908-7.221-16.129-16.13-16.129H0V0Z" fill="currentColor"/>
  <path fill="#747474" d="M65.968 48.387a8.065 8.065 0 1 1 16.129 0 8.065 8.065 0 0 1-16.13 0Zm.483 16.129H0v20.161h66.45v-20.16Zm-8.064 22.581H0V100h53.548a4.839 4.839 0 0 0 4.839-4.839v-8.064Z" fill="currentColor"/>
</svg>