<svg xmlns="http://www.w3.org/2000/svg" fill="currentColor" viewBox="0 0 14 14">
  <path d="M13 11.45h-.2v-1.4c0-.2-.2-.4-.4-.4h-.2v-4h.2c.2 0 .4-.2.4-.4v-1.3h.2c.2 0 .3-.1.4-.3 0-.2-.1-.3-.2-.4l-6-2.6h-.3l-6 2.6c-.2 0-.3.2-.3.4.1.1.2.3.4.3h.2v1.4c0 .2.2.4.4.4h.2v4.1h-.3c-.2 0-.4.2-.4.4v1.4H1c-.2 0-.4.2-.4.4v.9c0 .2.2.4.4.4s.4-.2.4-.4v-.7h11.2v.7c0 .2.2.4.4.4s.4-.2.4-.4v-1.1c0-.2-.2-.4-.4-.4ZM7 1.35l4.2 1.8H2.8L7 1.35Zm5.1 10.1H1.9v-1h10.2v1Zm-9.6-1.7v-4.1h.9v4.1h-.9Zm1.6 0v-4.1h1.7v4.1H4.1Zm2.5 0v-4.1h.9v4.1h-.9Zm1.6 0v-4.1h1.7v4.1H8.2Zm2.5 0v-4.1h.9v4.1h-.9Zm1.4-4.8H1.9v-1h10.2v1Z"/>
</svg>