<?xml version="1.0" encoding="utf-8"?>
<!-- Generator: Adobe Illustrator 27.4.0, SVG Export Plug-In . SVG Version: 6.00 Build 0)  -->
<svg version="1.1" id="Layer_1" xmlns="http://www.w3.org/2000/svg" xmlns:xlink="http://www.w3.org/1999/xlink" x="0px" y="0px"
	 viewBox="0 0 14 14" style="enable-background:new 0 0 14 14;" xml:space="preserve">
<g>
	<path d="M13,11.5h-0.2v-1.4c0-0.2-0.2-0.4-0.4-0.4h-0.2V5.7h0.2c0.2,0,0.4-0.2,0.4-0.4V4H13c0.2,0,0.3-0.1,0.4-0.3
		c0-0.2-0.1-0.3-0.2-0.4l-6-2.6c-0.1,0-0.2,0-0.3,0l-6,2.6C0.7,3.3,0.6,3.5,0.6,3.7C0.7,3.8,0.8,4,1,4h0.2v1.4
		c0,0.2,0.2,0.4,0.4,0.4h0.2v4.1H1.5c-0.2,0-0.4,0.2-0.4,0.4v1.4H1c-0.2,0-0.4,0.2-0.4,0.4V13c0,0.2,0.2,0.4,0.4,0.4
		s0.4-0.2,0.4-0.4v-0.7h11.2V13c0,0.2,0.2,0.4,0.4,0.4s0.4-0.2,0.4-0.4v-1.1C13.4,11.7,13.2,11.5,13,11.5z M7,1.4l4.2,1.8H2.8L7,1.4
		z M12.1,11.5H1.9v-1h10.2V11.5z M2.5,9.8V5.7h0.9v4.1H2.5z M4.1,9.8V5.7h1.7v4.1H4.1z M6.6,9.8V5.7h0.9v4.1H6.6z M8.2,9.8V5.7h1.7
		v4.1H8.2z M10.7,9.8V5.7h0.9v4.1H10.7z M12.1,5H1.9V4h10.2V5z"/>
</g>
</svg>
