{
    "asset" : {
        "generator" : "Khronos glTF Blender I/O v1.4.40",
        "version" : "2.0"
    },
    "extensionsUsed" : [
        "KHR_materials_clearcoat"
    ],
    "scene" : 0,
    "scenes" : [
        {
            "name" : "Scene",
            "nodes" : [
                1,
                2,
                3,
                5,
                8,
                12,
                16
            ]
        }
    ],
    "nodes" : [
        {
            "name" : "root",
            "translation" : [
                -0.1167987659573555,
                0,
                0
            ]
        },
        {
            "children" : [
                0
            ],
            "name" : "Sketchfab_model",
            "rotation" : [
                -0.7071068286895752,
                0,
                0,
                0.7071068286895752
            ],
            "translation" : [
                -0.2661364674568176,
                0,
                0
            ]
        },
        {
            "name" : "Light",
            "rotation" : [
                0.16907575726509094,
                0.7558803558349609,
                -0.27217137813568115,
                0.570947527885437
            ],
            "translation" : [
                4.076245307922363,
                5.903861999511719,
                -1.0054539442062378
            ]
        },
        {
            "name" : "Camera",
            "rotation" : [
                0.483536034822464,
                0.33687159419059753,
                -0.20870360732078552,
                0.7804827094078064
            ],
            "translation" : [
                7.358891487121582,
                4.958309173583984,
                6.925790786743164
            ]
        },
        {
            "mesh" : 0,
            "name" : "Object_15"
        },
        {
            "children" : [
                4
            ],
            "name" : "Cube.001_5",
            "scale" : [
                0.6737601161003113,
                0.76952064037323,
                0.76952064037323
            ],
            "translation" : [
                -0.2646426558494568,
                0.74167799949646,
                -0.8336629867553711
            ]
        },
        {
            "mesh" : 1,
            "name" : "Object_12"
        },
        {
            "mesh" : 2,
            "name" : "Object_13"
        },
        {
            "children" : [
                6,
                7
            ],
            "name" : "Cube.003_4",
            "rotation" : [
                0,
                -0.0613664835691452,
                0,
                0.9981153011322021
            ],
            "scale" : [
                0.13438336551189423,
                0.01933121494948864,
                0.22431106865406036
            ],
            "translation" : [
                0.8726920485496521,
                0.05990363657474518,
                0.5093115568161011
            ]
        },
        {
            "mesh" : 3,
            "name" : "Object_10"
        },
        {
            "mesh" : 4,
            "name" : "Object_8"
        },
        {
            "mesh" : 5,
            "name" : "Object_9"
        },
        {
            "children" : [
                9,
                10,
                11
            ],
            "name" : "Cube.006_3",
            "rotation" : [
                0,
                0.019726986065506935,
                0,
                0.9998054504394531
            ],
            "scale" : [
                0.12072782218456268,
                0.017366847023367882,
                0.20151735842227936
            ],
            "translation" : [
                0.9328731894493103,
                0.05389000475406647,
                0.5093115568161011
            ]
        },
        {
            "mesh" : 6,
            "name" : "Object_4"
        },
        {
            "mesh" : 7,
            "name" : "Object_5"
        },
        {
            "mesh" : 8,
            "name" : "Object_6"
        },
        {
            "children" : [
                13,
                14,
                15
            ],
            "name" : "Cube_2",
            "scale" : [
                0.6737601161003113,
                0.76952064037323,
                0.76952064037323
            ],
            "translation" : [
                -0.2646426558494568,
                0.74167799949646,
                -0.8336629867553711
            ]
        }
    ],
    "materials" : [
        {
            "alphaMode" : "BLEND",
            "doubleSided" : true,
            "extensions" : {
                "KHR_materials_clearcoat" : {
                    "clearcoatFactor" : 1,
                    "clearcoatRoughnessFactor" : 0.03999999910593033
                }
            },
            "name" : "Material.006",
            "pbrMetallicRoughness" : {
                "baseColorFactor" : [
                    0.012662800028920174,
                    0.009299010038375854,
                    0.800000011920929,
                    0.3508741557598114
                ],
                "metallicFactor" : 0,
                "roughnessFactor" : 0
            }
        },
        {
            "doubleSided" : true,
            "name" : "Material.007",
            "pbrMetallicRoughness" : {
                "baseColorFactor" : [
                    0.803391695022583,
                    0.8034476637840271,
                    0.8031571507453918,
                    1
                ],
                "metallicFactor" : 0
            }
        },
        {
            "doubleSided" : true,
            "name" : "Material.009",
            "pbrMetallicRoughness" : {
                "baseColorFactor" : [
                    0.40196898579597473,
                    0.3894810080528259,
                    0.3533860146999359,
                    1
                ],
                "metallicFactor" : 0,
                "roughnessFactor" : 0.5633352994918823
            }
        },
        {
            "doubleSided" : true,
            "name" : "Material.008",
            "pbrMetallicRoughness" : {
                "baseColorFactor" : [
                    0,
                    0,
                    0,
                    1
                ],
                "metallicFactor" : 0
            }
        }
    ],
    "meshes" : [
        {
            "name" : "Object_8",
            "primitives" : [
                {
                    "attributes" : {
                        "POSITION" : 0,
                        "NORMAL" : 1,
                        "TEXCOORD_0" : 2
                    },
                    "indices" : 3,
                    "material" : 0
                }
            ]
        },
        {
            "name" : "Object_6",
            "primitives" : [
                {
                    "attributes" : {
                        "POSITION" : 4,
                        "NORMAL" : 5,
                        "TEXCOORD_0" : 6
                    },
                    "indices" : 7,
                    "material" : 1
                }
            ]
        },
        {
            "name" : "Object_7",
            "primitives" : [
                {
                    "attributes" : {
                        "POSITION" : 8,
                        "NORMAL" : 9,
                        "TEXCOORD_0" : 10
                    },
                    "indices" : 11,
                    "material" : 2
                }
            ]
        },
        {
            "name" : "Object_5",
            "primitives" : [
                {
                    "attributes" : {
                        "POSITION" : 12,
                        "NORMAL" : 13,
                        "TEXCOORD_0" : 14
                    },
                    "indices" : 15,
                    "material" : 2
                }
            ]
        },
        {
            "name" : "Object_3",
            "primitives" : [
                {
                    "attributes" : {
                        "POSITION" : 16,
                        "NORMAL" : 17,
                        "TEXCOORD_0" : 18
                    },
                    "indices" : 19,
                    "material" : 1
                }
            ]
        },
        {
            "name" : "Object_4",
            "primitives" : [
                {
                    "attributes" : {
                        "POSITION" : 20,
                        "NORMAL" : 21,
                        "TEXCOORD_0" : 22
                    },
                    "indices" : 23,
                    "material" : 3
                }
            ]
        },
        {
            "name" : "Object_0",
            "primitives" : [
                {
                    "attributes" : {
                        "POSITION" : 24,
                        "NORMAL" : 25,
                        "TEXCOORD_0" : 26
                    },
                    "indices" : 27,
                    "material" : 1
                }
            ]
        },
        {
            "name" : "Object_1",
            "primitives" : [
                {
                    "attributes" : {
                        "POSITION" : 28,
                        "NORMAL" : 29,
                        "TEXCOORD_0" : 30
                    },
                    "indices" : 31,
                    "material" : 3
                }
            ]
        },
        {
            "name" : "Object_2",
            "primitives" : [
                {
                    "attributes" : {
                        "POSITION" : 32,
                        "NORMAL" : 33,
                        "TEXCOORD_0" : 34
                    },
                    "indices" : 35,
                    "material" : 0
                }
            ]
        }
    ],
    "accessors" : [
        {
            "bufferView" : 0,
            "componentType" : 5126,
            "count" : 2964,
            "max" : [
                0.7434894442558289,
                0.961749255657196,
                1.1595501899719238
            ],
            "min" : [
                -0.7569795250892639,
                0.10768486559391022,
                1.0631670951843262
            ],
            "type" : "VEC3"
        },
        {
            "bufferView" : 1,
            "componentType" : 5126,
            "count" : 2964,
            "type" : "VEC3"
        },
        {
            "bufferView" : 2,
            "componentType" : 5126,
            "count" : 2964,
            "type" : "VEC2"
        },
        {
            "bufferView" : 3,
            "componentType" : 5123,
            "count" : 3168,
            "type" : "SCALAR"
        },
        {
            "bufferView" : 4,
            "componentType" : 5126,
            "count" : 692,
            "max" : [
                1.0285032987594604,
                6.390721321105957,
                1.028658151626587
            ],
            "min" : [
                -1.02902352809906,
                -1,
                -1.0288686752319336
            ],
            "type" : "VEC3"
        },
        {
            "bufferView" : 5,
            "componentType" : 5126,
            "count" : 692,
            "type" : "VEC3"
        },
        {
            "bufferView" : 6,
            "componentType" : 5126,
            "count" : 692,
            "type" : "VEC2"
        },
        {
            "bufferView" : 7,
            "componentType" : 5123,
            "count" : 834,
            "type" : "SCALAR"
        },
        {
            "bufferView" : 8,
            "componentType" : 5126,
            "count" : 124,
            "max" : [
                0.6097760200500488,
                6.714644908905029,
                -0.5401512384414673
            ],
            "min" : [
                -0.5950292348861694,
                5.868099689483643,
                -0.8564102053642273
            ],
            "type" : "VEC3"
        },
        {
            "bufferView" : 9,
            "componentType" : 5126,
            "count" : 124,
            "type" : "VEC3"
        },
        {
            "bufferView" : 10,
            "componentType" : 5126,
            "count" : 124,
            "type" : "VEC2"
        },
        {
            "bufferView" : 11,
            "componentType" : 5123,
            "count" : 126,
            "type" : "SCALAR"
        },
        {
            "bufferView" : 12,
            "componentType" : 5126,
            "count" : 3241,
            "max" : [
                -4.134003162384033,
                14.141319274902344,
                1.291487455368042
            ],
            "min" : [
                -15.24874496459961,
                6.836655616760254,
                -1.1196949481964111
            ],
            "type" : "VEC3"
        },
        {
            "bufferView" : 13,
            "componentType" : 5126,
            "count" : 3241,
            "type" : "VEC3"
        },
        {
            "bufferView" : 14,
            "componentType" : 5126,
            "count" : 3241,
            "type" : "VEC2"
        },
        {
            "bufferView" : 15,
            "componentType" : 5123,
            "count" : 3336,
            "type" : "SCALAR"
        },
        {
            "bufferView" : 16,
            "componentType" : 5126,
            "count" : 3293,
            "max" : [
                -2.8016834259033203,
                12.728996276855469,
                1.6503982543945312
            ],
            "min" : [
                -16.542133331298828,
                -1.3620071411132812,
                -1.646242618560791
            ],
            "type" : "VEC3"
        },
        {
            "bufferView" : 17,
            "componentType" : 5126,
            "count" : 3293,
            "type" : "VEC3"
        },
        {
            "bufferView" : 18,
            "componentType" : 5126,
            "count" : 3293,
            "type" : "VEC2"
        },
        {
            "bufferView" : 19,
            "componentType" : 5123,
            "count" : 3537,
            "type" : "SCALAR"
        },
        {
            "bufferView" : 20,
            "componentType" : 5126,
            "count" : 275,
            "max" : [
                -2.91778564453125,
                8.79290771484375,
                1.588198184967041
            ],
            "min" : [
                -16.42601776123047,
                1.8417892456054688,
                -1.5876092910766602
            ],
            "type" : "VEC3"
        },
        {
            "bufferView" : 21,
            "componentType" : 5126,
            "count" : 275,
            "type" : "VEC3"
        },
        {
            "bufferView" : 22,
            "componentType" : 5126,
            "count" : 275,
            "type" : "VEC2"
        },
        {
            "bufferView" : 23,
            "componentType" : 5123,
            "count" : 348,
            "type" : "SCALAR"
        },
        {
            "bufferView" : 24,
            "componentType" : 5126,
            "count" : 7064,
            "max" : [
                1,
                1.212882161140442,
                1.15645170211792
            ],
            "min" : [
                -1,
                -0.9353344440460205,
                -0.6839900016784668
            ],
            "type" : "VEC3"
        },
        {
            "bufferView" : 25,
            "componentType" : 5126,
            "count" : 7064,
            "type" : "VEC3"
        },
        {
            "bufferView" : 26,
            "componentType" : 5126,
            "count" : 7064,
            "type" : "VEC2"
        },
        {
            "bufferView" : 27,
            "componentType" : 5123,
            "count" : 11106,
            "type" : "SCALAR"
        },
        {
            "bufferView" : 28,
            "componentType" : 5126,
            "count" : 547,
            "max" : [
                0.990936815738678,
                1.206458568572998,
                1.1380342245101929
            ],
            "min" : [
                -0.988806426525116,
                -0.9349175691604614,
                -0.5394861698150635
            ],
            "type" : "VEC3"
        },
        {
            "bufferView" : 29,
            "componentType" : 5126,
            "count" : 547,
            "type" : "VEC3"
        },
        {
            "bufferView" : 30,
            "componentType" : 5126,
            "count" : 547,
            "type" : "VEC2"
        },
        {
            "bufferView" : 31,
            "componentType" : 5123,
            "count" : 882,
            "type" : "SCALAR"
        },
        {
            "bufferView" : 32,
            "componentType" : 5126,
            "count" : 33,
            "max" : [
                0.7434893250465393,
                0.9617490768432617,
                1.0631670951843262
            ],
            "min" : [
                -0.7569794058799744,
                0.10768485069274902,
                1.0631670951843262
            ],
            "type" : "VEC3"
        },
        {
            "bufferView" : 33,
            "componentType" : 5126,
            "count" : 33,
            "type" : "VEC3"
        },
        {
            "bufferView" : 34,
            "componentType" : 5126,
            "count" : 33,
            "type" : "VEC2"
        },
        {
            "bufferView" : 35,
            "componentType" : 5123,
            "count" : 54,
            "type" : "SCALAR"
        }
    ],
    "bufferViews" : [
        {
            "buffer" : 0,
            "byteLength" : 35568,
            "byteOffset" : 0
        },
        {
            "buffer" : 0,
            "byteLength" : 35568,
            "byteOffset" : 35568
        },
        {
            "buffer" : 0,
            "byteLength" : 23712,
            "byteOffset" : 71136
        },
        {
            "buffer" : 0,
            "byteLength" : 6336,
            "byteOffset" : 94848
        },
        {
            "buffer" : 0,
            "byteLength" : 8304,
            "byteOffset" : 101184
        },
        {
            "buffer" : 0,
            "byteLength" : 8304,
            "byteOffset" : 109488
        },
        {
            "buffer" : 0,
            "byteLength" : 5536,
            "byteOffset" : 117792
        },
        {
            "buffer" : 0,
            "byteLength" : 1668,
            "byteOffset" : 123328
        },
        {
            "buffer" : 0,
            "byteLength" : 1488,
            "byteOffset" : 124996
        },
        {
            "buffer" : 0,
            "byteLength" : 1488,
            "byteOffset" : 126484
        },
        {
            "buffer" : 0,
            "byteLength" : 992,
            "byteOffset" : 127972
        },
        {
            "buffer" : 0,
            "byteLength" : 252,
            "byteOffset" : 128964
        },
        {
            "buffer" : 0,
            "byteLength" : 38892,
            "byteOffset" : 129216
        },
        {
            "buffer" : 0,
            "byteLength" : 38892,
            "byteOffset" : 168108
        },
        {
            "buffer" : 0,
            "byteLength" : 25928,
            "byteOffset" : 207000
        },
        {
            "buffer" : 0,
            "byteLength" : 6672,
            "byteOffset" : 232928
        },
        {
            "buffer" : 0,
            "byteLength" : 39516,
            "byteOffset" : 239600
        },
        {
            "buffer" : 0,
            "byteLength" : 39516,
            "byteOffset" : 279116
        },
        {
            "buffer" : 0,
            "byteLength" : 26344,
            "byteOffset" : 318632
        },
        {
            "buffer" : 0,
            "byteLength" : 7074,
            "byteOffset" : 344976
        },
        {
            "buffer" : 0,
            "byteLength" : 3300,
            "byteOffset" : 352052
        },
        {
            "buffer" : 0,
            "byteLength" : 3300,
            "byteOffset" : 355352
        },
        {
            "buffer" : 0,
            "byteLength" : 2200,
            "byteOffset" : 358652
        },
        {
            "buffer" : 0,
            "byteLength" : 696,
            "byteOffset" : 360852
        },
        {
            "buffer" : 0,
            "byteLength" : 84768,
            "byteOffset" : 361548
        },
        {
            "buffer" : 0,
            "byteLength" : 84768,
            "byteOffset" : 446316
        },
        {
            "buffer" : 0,
            "byteLength" : 56512,
            "byteOffset" : 531084
        },
        {
            "buffer" : 0,
            "byteLength" : 22212,
            "byteOffset" : 587596
        },
        {
            "buffer" : 0,
            "byteLength" : 6564,
            "byteOffset" : 609808
        },
        {
            "buffer" : 0,
            "byteLength" : 6564,
            "byteOffset" : 616372
        },
        {
            "buffer" : 0,
            "byteLength" : 4376,
            "byteOffset" : 622936
        },
        {
            "buffer" : 0,
            "byteLength" : 1764,
            "byteOffset" : 627312
        },
        {
            "buffer" : 0,
            "byteLength" : 396,
            "byteOffset" : 629076
        },
        {
            "buffer" : 0,
            "byteLength" : 396,
            "byteOffset" : 629472
        },
        {
            "buffer" : 0,
            "byteLength" : 264,
            "byteOffset" : 629868
        },
        {
            "buffer" : 0,
            "byteLength" : 108,
            "byteOffset" : 630132
        }
    ],
    "buffers" : [
        {
            "byteLength" : 630240,
            "uri" : "data:application/octet-stream;base64,"
        }
    ]
}
