{
    "asset" : {
        "generator" : "Khronos glTF Blender I/O v1.4.40",
        "version" : "2.0"
    },
    "scene" : 0,
    "scenes" : [
        {
            "name" : "Scene",
            "nodes" : [
                1,
                2,
                3,
                4
            ]
        }
    ],
    "nodes" : [
        {
            "name" : "Object_4"
        },
        {
            "children" : [
                0
            ],
            "name" : "Camera.001",
            "rotation" : [
                0.14438433945178986,
                -0.9525346755981445,
                -0.04017074033617973,
                0.2649853527545929
            ],
            "scale" : [
                100,
                100,
                100
            ],
            "translation" : [
                941.319091796875,
                400.18597412109375,
                -480.713134765625
            ]
        },
        {
            "mesh" : 0,
            "name" : "SatelliteDish_Mesh",
            "rotation" : [
                0,
                0.7093029022216797,
                0,
                0.7049039006233215
            ],
            "scale" : [
                0.053936947137117386,
                0.053936947137117386,
                0.053936947137117386
            ],
            "translation" : [
                0.13821832835674286,
                0,
                -0.0018552392721176147
            ]
        },
        {
            "name" : "Light",
            "rotation" : [
                0.16907575726509094,
                0.7558803558349609,
                -0.27217137813568115,
                0.570947527885437
            ],
            "translation" : [
                4.076245307922363,
                5.903861999511719,
                -1.0054539442062378
            ]
        },
        {
            "name" : "Camera",
            "rotation" : [
                0.483536034822464,
                0.33687159419059753,
                -0.20870360732078552,
                0.7804827094078064
            ],
            "translation" : [
                7.358891487121582,
                4.958309173583984,
                6.925790786743164
            ]
        }
    ],
    "materials" : [
        {
            "name" : "SatelliteDish_Mat",
            "pbrMetallicRoughness" : {
                "baseColorTexture" : {
                    "index" : 0,
                    "texCoord" : 0
                },
                "metallicFactor" : 0
            }
        }
    ],
    "meshes" : [
        {
            "name" : "SatelliteDish_Mesh_1",
            "primitives" : [
                {
                    "attributes" : {
                        "POSITION" : 0,
                        "NORMAL" : 1,
                        "TEXCOORD_0" : 2
                    },
                    "indices" : 3,
                    "material" : 0
                }
            ]
        }
    ],
    "textures" : [
        {
            "sampler" : 0,
            "source" : 0
        }
    ],
    "images" : [
        {
            "bufferView" : 4,
            "mimeType" : "image/png",
            "name" : "satellitedish_img0"
        }
    ],
    "accessors" : [
        {
            "bufferView" : 0,
            "componentType" : 5126,
            "count" : 5716,
            "max" : [
                8.1871919631958,
                17.301931381225586,
                5.984263896942139
            ],
            "min" : [
                -8.187191009521484,
                -0.04321499913930893,
                -7.373508930206299
            ],
            "type" : "VEC3"
        },
        {
            "bufferView" : 1,
            "componentType" : 5126,
            "count" : 5716,
            "type" : "VEC3"
        },
        {
            "bufferView" : 2,
            "componentType" : 5126,
            "count" : 5716,
            "type" : "VEC2"
        },
        {
            "bufferView" : 3,
            "componentType" : 5123,
            "count" : 6696,
            "type" : "SCALAR"
        }
    ],
    "bufferViews" : [
        {
            "buffer" : 0,
            "byteLength" : 68592,
            "byteOffset" : 0
        },
        {
            "buffer" : 0,
            "byteLength" : 68592,
            "byteOffset" : 68592
        },
        {
            "buffer" : 0,
            "byteLength" : 45728,
            "byteOffset" : 137184
        },
        {
            "buffer" : 0,
            "byteLength" : 13392,
            "byteOffset" : 182912
        },
        {
            "buffer" : 0,
            "byteLength" : 1190298,
            "byteOffset" : 196304
        }
    ],
    "samplers" : [
        {
            "magFilter" : 9729,
            "minFilter" : 9986
        }
    ],
    "buffers" : [
        {
            "byteLength" : 1386604,
            "uri" : "data:application/octet-stream;base64,"
        }
    ]
}
