{
    "asset" : {
        "generator" : "Khronos glTF Blender I/O v1.4.40",
        "version" : "2.0"
    },
    "extensionsUsed" : [
        "KHR_materials_transmission"
    ],
    "scene" : 0,
    "scenes" : [
        {
            "name" : "Scene",
            "nodes" : [
                0,
                1,
                2,
                3
            ]
        }
    ],
    "nodes" : [
        {
            "mesh" : 0,
            "name" : "Cube.002",
            "scale" : [
                0.7302509546279907,
                0.08763011544942856,
                0.7302509546279907
            ],
            "translation" : [
                -0.0003895978443324566,
                0.37200844287872314,
                -0.018795622512698174
            ]
        },
        {
            "mesh" : 1,
            "name" : "bust",
            "rotation" : [
                0.7071068286895752,
                0,
                0,
                0.7071067094802856
            ],
            "scale" : [
                1.2779392004013062,
                1.2779392004013062,
                1.2779392004013062
            ],
            "translation" : [
                -0.00038959807716310024,
                1.9049146175384521,
                0.18543626368045807
            ]
        },
        {
            "mesh" : 2,
            "name" : "Cube.001",
            "scale" : [
                0.7302509546279907,
                0.2008190155029297,
                1.0004438161849976
            ]
        },
        {
            "mesh" : 3,
            "name" : "Mball.001",
            "scale" : [
                0.6542377471923828,
                0.6542377471923828,
                0.6542377471923828
            ],
            "translation" : [
                -0.6653103828430176,
                2.400895357131958,
                -0.3522295653820038
            ]
        }
    ],
    "materials" : [
        {
            "doubleSided" : true,
            "name" : "Material.009",
            "pbrMetallicRoughness" : {
                "baseColorFactor" : [
                    0.06524552404880524,
                    0.05520948767662048,
                    0.062069445848464966,
                    1
                ],
                "metallicFactor" : 0,
                "roughnessFactor" : 0.35180723667144775
            }
        },
        {
            "doubleSided" : true,
            "emissiveFactor" : [
                0.0030053067310301107,
                0.004953023840617576,
                0.011279889286693878
            ],
            "extensions" : {
                "KHR_materials_transmission" : {
                    "transmissionFactor" : 1
                }
            },
            "name" : "Default OBJ.001",
            "pbrMetallicRoughness" : {
                "baseColorFactor" : [
                    0.41547152400016785,
                    0.15366947650909424,
                    0.22097545862197876,
                    1
                ],
                "metallicFactor" : 0,
                "roughnessFactor" : 0.2301204800605774
            }
        },
        {
            "doubleSided" : true,
            "emissiveFactor" : [
                0.043687134981155396,
                0.05485916510224342,
                0.08175720274448395
            ],
            "name" : "Material.007",
            "pbrMetallicRoughness" : {
                "baseColorFactor" : [
                    0.2846432030200958,
                    0.23295125365257263,
                    0.1332344114780426,
                    1
                ],
                "metallicFactor" : 0
            }
        },
        {
            "doubleSided" : true,
            "name" : "Material.008",
            "pbrMetallicRoughness" : {
                "baseColorFactor" : [
                    0.11942336708307266,
                    0.15199972689151764,
                    0.1873137503862381,
                    1
                ],
                "metallicFactor" : 0.7662650346755981,
                "roughnessFactor" : 0.19156625866889954
            }
        },
        {
            "doubleSided" : true,
            "emissiveFactor" : [
                0.1885549156019497,
                1,
                1
            ],
            "extensions" : {
                "KHR_materials_transmission" : {
                    "transmissionFactor" : 0.5614457726478577
                }
            },
            "name" : "Material.011",
            "pbrMetallicRoughness" : {
                "baseColorFactor" : [
                    0.119257353246212,
                    0.25308462977409363,
                    0.8000000715255737,
                    1
                ],
                "metallicFactor" : 0,
                "roughnessFactor" : 0.37469878792762756
            }
        }
    ],
    "meshes" : [
        {
            "name" : "Cube.005",
            "primitives" : [
                {
                    "attributes" : {
                        "POSITION" : 0,
                        "NORMAL" : 1,
                        "TEXCOORD_0" : 2
                    },
                    "indices" : 3,
                    "material" : 0
                }
            ]
        },
        {
            "name" : "bust.001",
            "primitives" : [
                {
                    "attributes" : {
                        "POSITION" : 4,
                        "NORMAL" : 5
                    },
                    "indices" : 6,
                    "material" : 1
                }
            ]
        },
        {
            "name" : "Cube.003",
            "primitives" : [
                {
                    "attributes" : {
                        "POSITION" : 7,
                        "NORMAL" : 8,
                        "TEXCOORD_0" : 9
                    },
                    "indices" : 10,
                    "material" : 2
                },
                {
                    "attributes" : {
                        "POSITION" : 11,
                        "NORMAL" : 12,
                        "TEXCOORD_0" : 13
                    },
                    "indices" : 14,
                    "material" : 3
                }
            ]
        },
        {
            "name" : "Mesh",
            "primitives" : [
                {
                    "attributes" : {
                        "POSITION" : 15,
                        "NORMAL" : 16
                    },
                    "indices" : 17,
                    "material" : 4
                }
            ]
        }
    ],
    "accessors" : [
        {
            "bufferView" : 0,
            "componentType" : 5126,
            "count" : 1155,
            "max" : [
                1.0537610054016113,
                7.722357749938965,
                1.185271978378296
            ],
            "min" : [
                -1.0537610054016113,
                -7.722357749938965,
                -1.185271978378296
            ],
            "type" : "VEC3"
        },
        {
            "bufferView" : 1,
            "componentType" : 5126,
            "count" : 1155,
            "type" : "VEC3"
        },
        {
            "bufferView" : 2,
            "componentType" : 5126,
            "count" : 1155,
            "type" : "VEC2"
        },
        {
            "bufferView" : 3,
            "componentType" : 5123,
            "count" : 1812,
            "type" : "SCALAR"
        },
        {
            "bufferView" : 4,
            "componentType" : 5126,
            "count" : 4180,
            "max" : [
                0.574854850769043,
                0.6774282455444336,
                1.070162296295166
            ],
            "min" : [
                -0.574854850769043,
                -0.6774282455444336,
                -1.070162296295166
            ],
            "type" : "VEC3"
        },
        {
            "bufferView" : 5,
            "componentType" : 5126,
            "count" : 4180,
            "type" : "VEC3"
        },
        {
            "bufferView" : 6,
            "componentType" : 5123,
            "count" : 6372,
            "type" : "SCALAR"
        },
        {
            "bufferView" : 7,
            "componentType" : 5126,
            "count" : 1436,
            "max" : [
                0.95588618516922,
                12.971048355102539,
                1.1217551231384277
            ],
            "min" : [
                -0.9547478556632996,
                10.971048355102539,
                -0.7878243327140808
            ],
            "type" : "VEC3"
        },
        {
            "bufferView" : 8,
            "componentType" : 5126,
            "count" : 1436,
            "type" : "VEC3"
        },
        {
            "bufferView" : 9,
            "componentType" : 5126,
            "count" : 1436,
            "type" : "VEC2"
        },
        {
            "bufferView" : 10,
            "componentType" : 5123,
            "count" : 2496,
            "type" : "SCALAR"
        },
        {
            "bufferView" : 11,
            "componentType" : 5126,
            "count" : 72,
            "max" : [
                -0.8591538071632385,
                12.529553413391113,
                -0.2350923866033554
            ],
            "min" : [
                -0.984508752822876,
                11.382014274597168,
                -0.4654378294944763
            ],
            "type" : "VEC3"
        },
        {
            "bufferView" : 12,
            "componentType" : 5126,
            "count" : 72,
            "type" : "VEC3"
        },
        {
            "bufferView" : 13,
            "componentType" : 5126,
            "count" : 72,
            "type" : "VEC2"
        },
        {
            "bufferView" : 14,
            "componentType" : 5123,
            "count" : 360,
            "type" : "SCALAR"
        },
        {
            "bufferView" : 15,
            "componentType" : 5126,
            "count" : 144,
            "max" : [
                0.1393887847661972,
                0.13938868045806885,
                0.13938872516155243
            ],
            "min" : [
                -0.1393885314464569,
                -0.13938868045806885,
                -0.13938862085342407
            ],
            "type" : "VEC3"
        },
        {
            "bufferView" : 16,
            "componentType" : 5126,
            "count" : 144,
            "type" : "VEC3"
        },
        {
            "bufferView" : 17,
            "componentType" : 5123,
            "count" : 852,
            "type" : "SCALAR"
        }
    ],
    "bufferViews" : [
        {
            "buffer" : 0,
            "byteLength" : 13860,
            "byteOffset" : 0
        },
        {
            "buffer" : 0,
            "byteLength" : 13860,
            "byteOffset" : 13860
        },
        {
            "buffer" : 0,
            "byteLength" : 9240,
            "byteOffset" : 27720
        },
        {
            "buffer" : 0,
            "byteLength" : 3624,
            "byteOffset" : 36960
        },
        {
            "buffer" : 0,
            "byteLength" : 50160,
            "byteOffset" : 40584
        },
        {
            "buffer" : 0,
            "byteLength" : 50160,
            "byteOffset" : 90744
        },
        {
            "buffer" : 0,
            "byteLength" : 12744,
            "byteOffset" : 140904
        },
        {
            "buffer" : 0,
            "byteLength" : 17232,
            "byteOffset" : 153648
        },
        {
            "buffer" : 0,
            "byteLength" : 17232,
            "byteOffset" : 170880
        },
        {
            "buffer" : 0,
            "byteLength" : 11488,
            "byteOffset" : 188112
        },
        {
            "buffer" : 0,
            "byteLength" : 4992,
            "byteOffset" : 199600
        },
        {
            "buffer" : 0,
            "byteLength" : 864,
            "byteOffset" : 204592
        },
        {
            "buffer" : 0,
            "byteLength" : 864,
            "byteOffset" : 205456
        },
        {
            "buffer" : 0,
            "byteLength" : 576,
            "byteOffset" : 206320
        },
        {
            "buffer" : 0,
            "byteLength" : 720,
            "byteOffset" : 206896
        },
        {
            "buffer" : 0,
            "byteLength" : 1728,
            "byteOffset" : 207616
        },
        {
            "buffer" : 0,
            "byteLength" : 1728,
            "byteOffset" : 209344
        },
        {
            "buffer" : 0,
            "byteLength" : 1704,
            "byteOffset" : 211072
        }
    ],
    "buffers" : [
        {
            "byteLength" : 212776,
            "uri" : "data:application/octet-stream;base64,"
        }
    ]
}
