{
    "asset" : {
        "generator" : "Khronos glTF Blender I/O v1.4.40",
        "version" : "2.0"
    },
    "extensionsUsed" : [
        "KHR_materials_transmission"
    ],
    "scene" : 0,
    "scenes" : [
        {
            "name" : "Scene",
            "nodes" : [
                0,
                1,
                2,
                3
            ]
        }
    ],
    "nodes" : [
        {
            "mesh" : 0,
            "name" : "bust",
            "rotation" : [
                0.5,
                0.4999999701976776,
                -0.5000000596046448,
                0.4999999403953552
            ],
            "scale" : [
                1.2779392004013062,
                1.2779392004013062,
                1.2779392004013062
            ]
        },
        {
            "mesh" : 1,
            "name" : "Cube.001",
            "rotation" : [
                0,
                0.7071068286895752,
                0,
                0.7071068286895752
            ],
            "scale" : [
                0.7302509546279907,
                0.2008190155029297,
                1.0004438161849976
            ]
        },
        {
            "mesh" : 2,
            "name" : "Mball.001",
            "rotation" : [
                0,
                0.7071068286895752,
                0,
                0.7071068286895752
            ],
            "scale" : [
                0.6542377471923828,
                0.6542377471923828,
                0.6542377471923828
            ]
        },
        {
            "mesh" : 3,
            "name" : "Cube.002",
            "rotation" : [
                0,
                0.7071068286895752,
                0,
                0.7071067690849304
            ],
            "scale" : [
                0.7302509546279907,
                0.08763011544942856,
                0.7302509546279907
            ]
        }
    ],
    "materials" : [
        {
            "doubleSided" : true,
            "emissiveFactor" : [
                0.0030053067310301107,
                0.004953023840617576,
                0.011279889286693878
            ],
            "extensions" : {
                "KHR_materials_transmission" : {
                    "transmissionFactor" : 1
                }
            },
            "name" : "Default OBJ.001",
            "pbrMetallicRoughness" : {
                "baseColorFactor" : [
                    0.4154717028141022,
                    0.1536671370267868,
                    0.2209739089012146,
                    1
                ],
                "metallicFactor" : 0,
                "roughnessFactor" : 0.2301204800605774
            }
        },
        {
            "doubleSided" : true,
            "emissiveFactor" : [
                0.043687134981155396,
                0.05485916510224342,
                0.08175720274448395
            ],
            "name" : "Material.007",
            "pbrMetallicRoughness" : {
                "baseColorFactor" : [
                    0.09850604832172394,
                    0.07129013538360596,
                    0.06083108112215996,
                    1
                ],
                "metallicFactor" : 0
            }
        },
        {
            "doubleSided" : true,
            "name" : "Material.008",
            "pbrMetallicRoughness" : {
                "baseColorFactor" : [
                    0.11942336708307266,
                    0.15199972689151764,
                    0.1873137503862381,
                    1
                ],
                "metallicFactor" : 0.7662650346755981,
                "roughnessFactor" : 0.19156625866889954
            }
        },
        {
            "doubleSided" : true,
            "emissiveFactor" : [
                0.1885549156019497,
                1,
                1
            ],
            "extensions" : {
                "KHR_materials_transmission" : {
                    "transmissionFactor" : 0.5614457726478577
                }
            },
            "name" : "Material.011",
            "pbrMetallicRoughness" : {
                "baseColorFactor" : [
                    0.119257353246212,
                    0.25308462977409363,
                    0.8000000715255737,
                    1
                ],
                "metallicFactor" : 0,
                "roughnessFactor" : 0.37469878792762756
            }
        },
        {
            "doubleSided" : true,
            "name" : "Material.009",
            "pbrMetallicRoughness" : {
                "baseColorFactor" : [
                    0.02352323941886425,
                    0.017664875835180283,
                    0.023651540279388428,
                    1
                ],
                "metallicFactor" : 0,
                "roughnessFactor" : 0.35180723667144775
            }
        }
    ],
    "meshes" : [
        {
            "name" : "bust.001",
            "primitives" : [
                {
                    "attributes" : {
                        "POSITION" : 0,
                        "NORMAL" : 1
                    },
                    "indices" : 2,
                    "material" : 0
                }
            ]
        },
        {
            "name" : "Cube.003",
            "primitives" : [
                {
                    "attributes" : {
                        "POSITION" : 3,
                        "NORMAL" : 4,
                        "TEXCOORD_0" : 5
                    },
                    "indices" : 6,
                    "material" : 1
                },
                {
                    "attributes" : {
                        "POSITION" : 7,
                        "NORMAL" : 8,
                        "TEXCOORD_0" : 9
                    },
                    "indices" : 10,
                    "material" : 2
                }
            ]
        },
        {
            "name" : "Mesh",
            "primitives" : [
                {
                    "attributes" : {
                        "POSITION" : 11,
                        "NORMAL" : 12
                    },
                    "indices" : 13,
                    "material" : 3
                }
            ]
        },
        {
            "name" : "Cube.005",
            "primitives" : [
                {
                    "attributes" : {
                        "POSITION" : 14,
                        "NORMAL" : 15,
                        "TEXCOORD_0" : 16
                    },
                    "indices" : 17,
                    "material" : 4
                }
            ]
        }
    ],
    "accessors" : [
        {
            "bufferView" : 0,
            "componentType" : 5126,
            "count" : 4223,
            "max" : [
                0.5745499730110168,
                0.8225336670875549,
                -0.6129212379455566
            ],
            "min" : [
                -0.5751597285270691,
                -0.5323228240013123,
                -2.7532458305358887
            ],
            "type" : "VEC3"
        },
        {
            "bufferView" : 1,
            "componentType" : 5126,
            "count" : 4223,
            "type" : "VEC3"
        },
        {
            "bufferView" : 2,
            "componentType" : 5123,
            "count" : 6372,
            "type" : "SCALAR"
        },
        {
            "bufferView" : 3,
            "componentType" : 5126,
            "count" : 1439,
            "max" : [
                0.9558862447738647,
                14.195850372314453,
                1.1217551231384277
            ],
            "min" : [
                -0.9547478556632996,
                12.195850372314453,
                -0.787824273109436
            ],
            "type" : "VEC3"
        },
        {
            "bufferView" : 4,
            "componentType" : 5126,
            "count" : 1439,
            "type" : "VEC3"
        },
        {
            "bufferView" : 5,
            "componentType" : 5126,
            "count" : 1439,
            "type" : "VEC2"
        },
        {
            "bufferView" : 6,
            "componentType" : 5123,
            "count" : 2496,
            "type" : "SCALAR"
        },
        {
            "bufferView" : 7,
            "componentType" : 5126,
            "count" : 72,
            "max" : [
                -0.8591538071632385,
                13.754355430603027,
                -0.2350923717021942
            ],
            "min" : [
                -0.984508752822876,
                12.606816291809082,
                -0.4654378294944763
            ],
            "type" : "VEC3"
        },
        {
            "bufferView" : 8,
            "componentType" : 5126,
            "count" : 72,
            "type" : "VEC3"
        },
        {
            "bufferView" : 9,
            "componentType" : 5126,
            "count" : 72,
            "type" : "VEC2"
        },
        {
            "bufferView" : 10,
            "componentType" : 5123,
            "count" : 360,
            "type" : "SCALAR"
        },
        {
            "bufferView" : 11,
            "componentType" : 5126,
            "count" : 144,
            "max" : [
                -0.8775357007980347,
                4.185102462768555,
                -0.3989928960800171
            ],
            "min" : [
                -1.1563130617141724,
                3.906325101852417,
                -0.6777702569961548
            ],
            "type" : "VEC3"
        },
        {
            "bufferView" : 12,
            "componentType" : 5126,
            "count" : 144,
            "type" : "VEC3"
        },
        {
            "bufferView" : 13,
            "componentType" : 5123,
            "count" : 852,
            "type" : "SCALAR"
        },
        {
            "bufferView" : 14,
            "componentType" : 5126,
            "count" : 1162,
            "max" : [
                1.0532275438308716,
                14.774407386779785,
                1.1595333814620972
            ],
            "min" : [
                -1.054294466972351,
                -0.6703081130981445,
                -1.2110105752944946
            ],
            "type" : "VEC3"
        },
        {
            "bufferView" : 15,
            "componentType" : 5126,
            "count" : 1162,
            "type" : "VEC3"
        },
        {
            "bufferView" : 16,
            "componentType" : 5126,
            "count" : 1162,
            "type" : "VEC2"
        },
        {
            "bufferView" : 17,
            "componentType" : 5123,
            "count" : 1812,
            "type" : "SCALAR"
        }
    ],
    "bufferViews" : [
        {
            "buffer" : 0,
            "byteLength" : 50676,
            "byteOffset" : 0
        },
        {
            "buffer" : 0,
            "byteLength" : 50676,
            "byteOffset" : 50676
        },
        {
            "buffer" : 0,
            "byteLength" : 12744,
            "byteOffset" : 101352
        },
        {
            "buffer" : 0,
            "byteLength" : 17268,
            "byteOffset" : 114096
        },
        {
            "buffer" : 0,
            "byteLength" : 17268,
            "byteOffset" : 131364
        },
        {
            "buffer" : 0,
            "byteLength" : 11512,
            "byteOffset" : 148632
        },
        {
            "buffer" : 0,
            "byteLength" : 4992,
            "byteOffset" : 160144
        },
        {
            "buffer" : 0,
            "byteLength" : 864,
            "byteOffset" : 165136
        },
        {
            "buffer" : 0,
            "byteLength" : 864,
            "byteOffset" : 166000
        },
        {
            "buffer" : 0,
            "byteLength" : 576,
            "byteOffset" : 166864
        },
        {
            "buffer" : 0,
            "byteLength" : 720,
            "byteOffset" : 167440
        },
        {
            "buffer" : 0,
            "byteLength" : 1728,
            "byteOffset" : 168160
        },
        {
            "buffer" : 0,
            "byteLength" : 1728,
            "byteOffset" : 169888
        },
        {
            "buffer" : 0,
            "byteLength" : 1704,
            "byteOffset" : 171616
        },
        {
            "buffer" : 0,
            "byteLength" : 13944,
            "byteOffset" : 173320
        },
        {
            "buffer" : 0,
            "byteLength" : 13944,
            "byteOffset" : 187264
        },
        {
            "buffer" : 0,
            "byteLength" : 9296,
            "byteOffset" : 201208
        },
        {
            "buffer" : 0,
            "byteLength" : 3624,
            "byteOffset" : 210504
        }
    ],
    "buffers" : [
        {
            "byteLength" : 214128,
            "uri" : "data:application/octet-stream;base64,"
        }
    ]
}
